<svg width="280" height="192" viewBox="0 0 280 192" fill="none" xmlns="http://www.w3.org/2000/svg">
<path d="M85.3253 44.004C84.6906 41.708 84.2146 39.608 83.8973 37.704C83.5986 35.8 83.4493 34.2787 83.4493 33.14C83.4493 31.4787 83.7106 30.004 84.2333 28.716C84.7746 27.4093 85.4653 26.2893 86.3053 25.356C87.164 24.404 88.0786 23.62 89.0493 23.004C90.0386 22.388 90.9906 21.9307 91.9053 21.632C92.8386 21.3333 93.632 21.184 94.2853 21.184C94.9573 21.184 95.508 21.3613 95.9373 21.716C96.3853 22.0707 96.7773 22.584 97.1133 23.256C97.468 23.9093 97.8413 24.7027 98.2333 25.636C98.6626 26.6627 99.0546 27.428 99.4093 27.932C99.764 28.436 100.128 28.7813 100.501 28.968C100.875 29.136 101.295 29.22 101.761 29.22C102.471 29.22 102.984 29.4067 103.301 29.78C103.619 30.1347 103.777 30.5827 103.777 31.124C103.777 31.7027 103.581 32.188 103.189 32.58C102.797 32.9533 102.228 33.14 101.481 33.14C100.66 33.14 99.932 33.0187 99.2973 32.776C98.6626 32.5147 98.0933 32.1507 97.5893 31.684C97.2906 32.2253 96.8893 32.664 96.3853 33C95.9 33.336 95.256 33.504 94.4533 33.504C92.064 33.504 89.9266 32.2813 88.0413 29.836C87.8173 30.3773 87.6493 30.956 87.5373 31.572C87.4253 32.1693 87.3693 32.7573 87.3693 33.336C87.3693 34.12 87.4533 35.0813 87.6213 36.22C87.808 37.3587 88.032 38.5253 88.2933 39.72C88.5733 40.9147 88.8533 41.9973 89.1333 42.968L85.3253 44.004ZM94.3973 29.556C94.92 29.556 95.2933 29.444 95.5173 29.22C95.7413 28.9773 95.7693 28.6413 95.6013 28.212C95.2093 27.2227 94.864 26.4667 94.5653 25.944C94.2666 25.4213 93.94 25.16 93.5853 25.16C93.2866 25.16 92.9133 25.272 92.4653 25.496C92.036 25.7013 91.6253 25.944 91.2333 26.224C90.8413 26.504 90.5706 26.7467 90.4213 26.952C90.9253 27.736 91.532 28.3707 92.2413 28.856C92.9693 29.3227 93.688 29.556 94.3973 29.556ZM101.541 33.14L101.821 29.22H105.741C106.712 29.22 107.356 29.136 107.673 28.968C107.99 28.8 108.149 28.5387 108.149 28.184C108.149 27.7733 107.944 27.2973 107.533 26.756C107.141 26.196 106.646 25.6173 106.049 25.02C105.452 24.4227 104.854 23.844 104.257 23.284C103.66 22.724 103.156 22.2387 102.745 21.828C102.353 21.3987 102.157 21.0907 102.157 20.904C102.157 20.1387 102.213 19.588 102.325 19.252C102.456 18.916 102.624 18.6453 102.829 18.44C103.258 18.0107 103.949 17.516 104.901 16.956C105.872 16.396 107.038 15.7893 108.401 15.136C109.764 14.464 111.257 13.7547 112.881 13.008L114.477 16.424C112.629 17.2453 111.07 17.964 109.801 18.58C108.532 19.196 107.458 19.756 106.581 20.26C107.813 21.38 108.877 22.4533 109.773 23.48C110.669 24.5067 111.518 25.6733 112.321 26.98C112.713 27.6333 113.133 28.1187 113.581 28.436C114.029 28.7533 114.458 28.968 114.869 29.08C115.298 29.1733 115.681 29.22 116.017 29.22C116.708 29.22 117.212 29.4067 117.529 29.78C117.846 30.1347 118.005 30.5827 118.005 31.124C118.005 31.7027 117.809 32.188 117.417 32.58C117.025 32.9533 116.465 33.14 115.737 33.14C115.009 33.14 114.206 32.9907 113.329 32.692C112.47 32.3933 111.742 31.8707 111.145 31.124C110.548 31.852 109.782 32.3747 108.849 32.692C107.934 32.9907 106.805 33.14 105.461 33.14H101.541ZM115.76 33.14L116.04 29.22C117.253 29.22 118.102 29.0893 118.588 28.828C119.073 28.548 119.316 27.9693 119.316 27.092C119.316 26.5693 119.241 25.944 119.092 25.216C118.961 24.488 118.784 23.7413 118.56 22.976C118.336 22.192 118.112 21.464 117.888 20.792L121.752 19.728C121.976 20.3627 122.2 21.1 122.424 21.94C122.648 22.78 122.834 23.648 122.984 24.544C123.152 25.44 123.236 26.2893 123.236 27.092C123.236 28.3613 123.04 29.3973 122.648 30.2C122.256 30.984 121.705 31.5907 120.996 32.02C120.305 32.4493 119.512 32.748 118.616 32.916C117.72 33.0653 116.768 33.14 115.76 33.14ZM119.204 39.58C118.662 39.58 118.196 39.3933 117.804 39.02C117.43 38.6467 117.244 38.1893 117.244 37.648C117.244 37.1067 117.43 36.6307 117.804 36.22C118.196 35.828 118.662 35.632 119.204 35.632C119.726 35.632 120.184 35.828 120.576 36.22C120.968 36.6307 121.164 37.1067 121.164 37.648C121.164 38.1893 120.968 38.6467 120.576 39.02C120.184 39.3933 119.726 39.58 119.204 39.58ZM140.796 33.14C139.06 33.14 137.716 32.9627 136.764 32.608C135.831 32.2533 135.168 31.7027 134.776 30.956C134.403 30.1907 134.197 29.2293 134.16 28.072L133.572 12.504H137.492L138.08 26.196C138.117 27.0547 138.211 27.6987 138.36 28.128C138.509 28.5573 138.789 28.8467 139.2 28.996C139.611 29.1453 140.236 29.22 141.076 29.22C141.767 29.22 142.271 29.4067 142.588 29.78C142.905 30.1347 143.064 30.5827 143.064 31.124C143.064 31.7027 142.868 32.188 142.476 32.58C142.084 32.9533 141.524 33.14 140.796 33.14ZM140.834 33.14L141.114 29.22C141.823 29.22 142.383 29.1547 142.794 29.024C143.223 28.8933 143.559 28.632 143.802 28.24C144.063 27.8293 144.278 27.232 144.446 26.448C144.633 25.664 144.819 24.6187 145.006 23.312L148.674 23.928C148.599 24.3573 148.515 24.8707 148.422 25.468C148.329 26.0653 148.282 26.616 148.282 27.12C148.282 27.568 148.375 27.9507 148.562 28.268C148.767 28.5853 149.122 28.828 149.626 28.996C150.149 29.1453 150.895 29.22 151.866 29.22C152.575 29.22 153.079 29.4067 153.378 29.78C153.677 30.1347 153.826 30.5827 153.826 31.124C153.826 31.7027 153.63 32.188 153.238 32.58C152.865 32.9533 152.314 33.14 151.586 33.14C150.093 33.14 148.926 32.9813 148.086 32.664C147.265 32.3467 146.677 31.7773 146.322 30.956C145.631 31.9267 144.81 32.5333 143.858 32.776C142.925 33.0187 141.917 33.14 140.834 33.14ZM145.818 39.58C145.277 39.58 144.81 39.3933 144.418 39.02C144.045 38.6467 143.858 38.1893 143.858 37.648C143.858 37.1067 144.045 36.6307 144.418 36.22C144.81 35.828 145.277 35.632 145.818 35.632C146.341 35.632 146.798 35.828 147.19 36.22C147.582 36.6307 147.778 37.1067 147.778 37.648C147.778 38.1893 147.582 38.6467 147.19 39.02C146.798 39.3933 146.341 39.58 145.818 39.58ZM151.58 33.14L151.86 29.22C153.876 29.22 155.836 28.996 157.74 28.548C159.644 28.1 161.333 27.3813 162.808 26.392C161.949 25.888 160.997 25.496 159.952 25.216C158.925 24.936 157.796 24.796 156.564 24.796C156.097 24.796 155.612 24.824 155.108 24.88C154.623 24.9173 154.128 24.992 153.624 25.104L153.064 21.268C153.605 21.1373 154.175 21.0347 154.772 20.96C155.369 20.8853 155.911 20.848 156.396 20.848C157.665 20.848 158.804 21.016 159.812 21.352C160.82 21.688 161.735 22.08 162.556 22.528C163.396 22.976 164.171 23.368 164.88 23.704C165.608 24.04 166.317 24.208 167.008 24.208H168.044L168.492 27.932C167.671 27.988 166.915 28.1467 166.224 28.408C165.533 28.6693 164.843 29.0053 164.152 29.416C163.48 29.808 162.752 30.2187 161.968 30.648C161.203 31.0773 160.335 31.4787 159.364 31.852C158.393 32.2253 157.273 32.5333 156.004 32.776C154.735 33.0187 153.26 33.14 151.58 33.14ZM168.516 39.468L167.088 35.996C168.414 35.5293 169.59 34.9787 170.616 34.344C171.643 33.728 172.446 33.0187 173.024 32.216C173.622 31.3947 173.92 30.48 173.92 29.472C173.92 28.688 173.743 27.8293 173.388 26.896C173.034 25.9627 172.604 25.0107 172.1 24.04L175.768 22.276C176.086 22.8547 176.375 23.48 176.636 24.152C176.898 24.8053 177.112 25.3933 177.28 25.916C177.448 26.4387 177.56 26.7933 177.616 26.98C177.878 27.876 178.232 28.4733 178.68 28.772C179.147 29.0707 179.894 29.22 180.92 29.22C181.611 29.22 182.115 29.4067 182.432 29.78C182.75 30.1347 182.908 30.5827 182.908 31.124C182.908 31.7027 182.712 32.188 182.32 32.58C181.928 32.9533 181.368 33.14 180.64 33.14C179.222 33.14 178.139 32.7573 177.392 31.992C177.075 33.1493 176.468 34.2133 175.572 35.184C174.695 36.1733 173.64 37.032 172.408 37.76C171.176 38.488 169.879 39.0573 168.516 39.468ZM180.674 33.14L180.954 29.22C181.364 29.22 181.728 29.1173 182.046 28.912C182.363 28.688 182.69 28.324 183.026 27.82C183.362 27.316 183.754 26.616 184.202 25.72C185.042 24.04 185.928 22.892 186.862 22.276C187.814 21.6413 188.784 21.324 189.774 21.324C190.875 21.324 191.864 21.632 192.742 22.248C193.619 22.864 194.31 23.6667 194.814 24.656C195.318 25.6267 195.57 26.6627 195.57 27.764C195.57 28.7533 195.355 29.6493 194.926 30.452C194.515 31.236 193.936 31.8613 193.19 32.328C192.462 32.776 191.622 33 190.67 33C189.96 33 189.148 32.8973 188.234 32.692C187.319 32.4867 186.358 32.0573 185.35 31.404C184.771 32.0573 184.127 32.5147 183.418 32.776C182.708 33.0187 181.794 33.14 180.674 33.14ZM189.662 25.244C189.12 25.244 188.691 25.5147 188.374 26.056C188.056 26.5973 187.683 27.316 187.254 28.212C187.832 28.5107 188.364 28.7347 188.85 28.884C189.354 29.0147 189.783 29.08 190.138 29.08C190.698 29.08 191.108 28.996 191.37 28.828C191.631 28.66 191.762 28.3613 191.762 27.932C191.762 27.54 191.668 27.1387 191.482 26.728C191.295 26.3173 191.043 25.972 190.726 25.692C190.408 25.3933 190.054 25.244 189.662 25.244Z" fill="white"/>
<path fill-rule="evenodd" clip-rule="evenodd" d="M161.877 65.4545H120.056V70.6095H105.515V94.7895C105.515 104.135 115.332 111.825 124.965 112.625C128.127 116.225 133.689 118.84 138.64 119.955V126.275C133.906 127.82 125.449 131.45 124.965 135.405H157.454C156.965 131.45 147.647 127.815 142.903 126.275V119.955C147.873 118.84 153.685 116.225 156.852 112.625C166.48 111.825 175.863 104.135 175.863 94.7895V70.6095H161.877V65.4545ZM109.981 75.1895H119.717V96.0195C119.717 100.13 120.715 104.04 122.47 107.56C115.186 105.095 109.981 98.7445 109.981 91.3145V75.1895ZM148.118 100.595L140.852 96.3395L133.576 100.595L134.965 91.5945L129.082 85.2245L137.209 83.9095L140.852 75.7295L144.485 83.9095L152.612 85.2245L146.729 91.5945L148.118 100.595ZM158.917 108.225C160.682 104.545 161.694 100.475 161.694 96.1695V75.3245H171.454V91.2545C171.454 99.0195 166.226 105.65 158.917 108.225Z" fill="white"/>
<path d="M118.083 158.496C118.083 158.029 118.046 157.572 117.971 157.124C117.906 156.667 117.845 156.284 117.789 155.976L119.749 155.696C119.777 155.883 119.81 156.13 119.847 156.438C119.894 156.746 119.931 157.073 119.959 157.418C119.987 157.754 120.001 158.076 120.001 158.384C120.001 159.495 119.773 160.475 119.315 161.324C119.857 161.893 120.216 162.393 120.393 162.822C120.58 163.251 120.673 163.625 120.673 163.942C120.673 164.306 120.594 164.647 120.435 164.964C120.286 165.272 120.039 165.524 119.693 165.72C119.348 165.907 118.886 166 118.307 166H114.191V164.124C115.423 163.237 116.347 162.397 116.963 161.604C116.459 161.193 115.881 160.755 115.227 160.288C114.574 159.821 113.874 159.355 113.127 158.888L114.149 157.39C114.933 157.875 115.629 158.333 116.235 158.762C116.851 159.191 117.388 159.597 117.845 159.98C118.004 159.513 118.083 159.019 118.083 158.496ZM116.711 164.11H117.621C118.097 164.11 118.41 164.068 118.559 163.984C118.709 163.9 118.783 163.788 118.783 163.648C118.783 163.461 118.606 163.177 118.251 162.794C117.831 163.242 117.318 163.681 116.711 164.11ZM122.211 169.22L121.805 167.26C122.701 167.148 123.448 166.999 124.045 166.812C124.652 166.635 125.1 166.331 125.389 165.902C125.258 165.949 125.114 165.986 124.955 166.014C124.806 166.042 124.642 166.056 124.465 166.056C124.017 166.056 123.611 165.986 123.247 165.846C122.892 165.697 122.608 165.468 122.393 165.16C122.178 164.852 122.071 164.451 122.071 163.956C122.071 163.499 122.146 163.055 122.295 162.626C122.444 162.197 122.65 161.814 122.911 161.478C123.182 161.133 123.49 160.862 123.835 160.666C124.19 160.461 124.563 160.358 124.955 160.358C125.412 160.358 125.818 160.475 126.173 160.708C126.528 160.941 126.822 161.249 127.055 161.632C127.288 162.005 127.466 162.411 127.587 162.85C127.708 163.289 127.769 163.709 127.769 164.11C127.769 165.165 127.545 166.061 127.097 166.798C126.649 167.535 126.01 168.105 125.179 168.506C124.348 168.917 123.359 169.155 122.211 169.22ZM124.003 163.564C124.003 163.956 124.297 164.152 124.885 164.152C125.193 164.152 125.496 164.11 125.795 164.026C125.776 163.774 125.73 163.527 125.655 163.284C125.59 163.032 125.492 162.827 125.361 162.668C125.23 162.509 125.067 162.43 124.871 162.43C124.61 162.43 124.4 162.556 124.241 162.808C124.082 163.051 124.003 163.303 124.003 163.564ZM129.478 166L129.212 156.732H131.172L131.438 166H129.478ZM128.708 155.836L128.47 154.856C128.768 154.8 129.006 154.753 129.184 154.716C129.016 154.595 128.871 154.436 128.75 154.24C128.628 154.044 128.568 153.829 128.568 153.596C128.568 153.26 128.642 152.989 128.792 152.784C128.941 152.579 129.132 152.429 129.366 152.336C129.599 152.243 129.842 152.196 130.094 152.196C130.364 152.196 130.612 152.233 130.836 152.308L130.724 153.316C130.63 153.297 130.537 153.279 130.444 153.26C130.35 153.241 130.248 153.232 130.136 153.232C130.005 153.232 129.893 153.274 129.8 153.358C129.706 153.433 129.66 153.526 129.66 153.638C129.66 153.825 129.734 153.988 129.884 154.128C130.042 154.259 130.201 154.352 130.36 154.408C130.658 154.324 130.934 154.231 131.186 154.128L131.466 155.066C131.111 155.197 130.677 155.337 130.164 155.486C129.66 155.626 129.174 155.743 128.708 155.836ZM138.147 166.476L136.649 165.86L141.087 156.242L142.613 156.9L138.147 166.476ZM137.923 158.972C137.643 158.692 137.405 158.454 137.209 158.258C137.013 158.062 136.771 157.843 136.481 157.6L137.713 156.284C137.993 156.499 138.259 156.737 138.511 156.998C138.763 157.25 138.987 157.493 139.183 157.726L137.923 158.972ZM141.703 166.266C141.423 165.977 141.185 165.734 140.989 165.538C140.793 165.342 140.551 165.123 140.261 164.88L141.493 163.564C141.773 163.779 142.039 164.017 142.291 164.278C142.543 164.53 142.767 164.773 142.963 165.006L141.703 166.266ZM152.816 166H150.702V160.218C150.702 159.985 150.707 159.672 150.716 159.28C150.726 158.879 150.74 158.529 150.758 158.23C150.712 158.286 150.609 158.389 150.45 158.538C150.301 158.678 150.161 158.804 150.03 158.916L148.882 159.84L147.86 158.566L151.08 156.004H152.816V166ZM162.536 161.002C162.536 162.075 162.419 162.995 162.186 163.76C161.962 164.525 161.593 165.113 161.08 165.524C160.567 165.935 159.885 166.14 159.036 166.14C157.832 166.14 156.95 165.687 156.39 164.782C155.83 163.877 155.55 162.617 155.55 161.002C155.55 159.929 155.662 159.009 155.886 158.244C156.11 157.469 156.479 156.877 156.992 156.466C157.505 156.055 158.187 155.85 159.036 155.85C160.231 155.85 161.113 156.303 161.682 157.208C162.251 158.113 162.536 159.378 162.536 161.002ZM157.65 161.002C157.65 162.141 157.748 162.999 157.944 163.578C158.14 164.147 158.504 164.432 159.036 164.432C159.559 164.432 159.923 164.147 160.128 163.578C160.333 163.009 160.436 162.15 160.436 161.002C160.436 159.863 160.333 159.005 160.128 158.426C159.923 157.847 159.559 157.558 159.036 157.558C158.504 157.558 158.14 157.847 157.944 158.426C157.748 159.005 157.65 159.863 157.65 161.002ZM170.548 161.002C170.548 162.075 170.431 162.995 170.198 163.76C169.974 164.525 169.605 165.113 169.092 165.524C168.578 165.935 167.897 166.14 167.048 166.14C165.844 166.14 164.962 165.687 164.402 164.782C163.842 163.877 163.562 162.617 163.562 161.002C163.562 159.929 163.674 159.009 163.898 158.244C164.122 157.469 164.49 156.877 165.004 156.466C165.517 156.055 166.198 155.85 167.048 155.85C168.242 155.85 169.124 156.303 169.694 157.208C170.263 158.113 170.548 159.378 170.548 161.002ZM165.662 161.002C165.662 162.141 165.76 162.999 165.956 163.578C166.152 164.147 166.516 164.432 167.048 164.432C167.57 164.432 167.934 164.147 168.14 163.578C168.345 163.009 168.448 162.15 168.448 161.002C168.448 159.863 168.345 159.005 168.14 158.426C167.934 157.847 167.57 157.558 167.048 157.558C166.516 157.558 166.152 157.847 165.956 158.426C165.76 159.005 165.662 159.863 165.662 161.002ZM108.067 186.042C107.545 186.042 107.073 185.953 106.653 185.776C106.243 185.589 105.916 185.314 105.673 184.95C105.44 184.577 105.323 184.115 105.323 183.564C105.323 183.116 105.445 182.621 105.687 182.08C105.939 181.539 106.345 180.988 106.905 180.428L106.359 179.994L107.675 178.384C108.739 179.196 109.57 179.98 110.167 180.736C110.774 181.492 111.077 182.318 111.077 183.214C111.077 183.503 111.031 183.816 110.937 184.152C110.844 184.479 110.685 184.787 110.461 185.076C110.237 185.356 109.929 185.589 109.537 185.776C109.155 185.953 108.665 186.042 108.067 186.042ZM108.221 184.11C108.567 184.11 108.819 184.012 108.977 183.816C109.145 183.611 109.229 183.382 109.229 183.13C109.229 182.915 109.164 182.673 109.033 182.402C108.903 182.131 108.618 181.809 108.179 181.436C107.834 181.763 107.587 182.08 107.437 182.388C107.297 182.687 107.227 182.957 107.227 183.2C107.227 183.499 107.325 183.727 107.521 183.886C107.717 184.035 107.951 184.11 108.221 184.11ZM106.947 177.32C106.677 177.32 106.443 177.227 106.247 177.04C106.061 176.844 105.967 176.615 105.967 176.354C105.967 176.083 106.061 175.85 106.247 175.654C106.443 175.458 106.677 175.36 106.947 175.36C107.209 175.36 107.433 175.458 107.619 175.654C107.806 175.85 107.899 176.083 107.899 176.354C107.899 176.615 107.806 176.844 107.619 177.04C107.433 177.227 107.209 177.32 106.947 177.32ZM109.369 177.334C109.099 177.334 108.865 177.241 108.669 177.054C108.483 176.867 108.389 176.639 108.389 176.368C108.389 176.097 108.483 175.864 108.669 175.668C108.865 175.472 109.099 175.374 109.369 175.374C109.631 175.374 109.855 175.472 110.041 175.668C110.228 175.864 110.321 176.097 110.321 176.368C110.321 176.639 110.228 176.867 110.041 177.054C109.855 177.241 109.631 177.334 109.369 177.334ZM115.945 186.07C115.077 186.07 114.405 185.981 113.929 185.804C113.462 185.627 113.131 185.351 112.935 184.978C112.748 184.595 112.646 184.115 112.627 183.536L112.361 176.732H114.321L114.587 182.598C114.606 183.027 114.652 183.349 114.727 183.564C114.802 183.779 114.942 183.923 115.147 183.998C115.352 184.073 115.665 184.11 116.085 184.11C116.43 184.11 116.682 184.203 116.841 184.39C117 184.567 117.079 184.791 117.079 185.062C117.079 185.351 116.981 185.594 116.785 185.79C116.589 185.977 116.309 186.07 115.945 186.07ZM111.955 175.836L111.717 174.856C112.016 174.8 112.254 174.753 112.431 174.716C112.263 174.595 112.118 174.436 111.997 174.24C111.876 174.044 111.815 173.829 111.815 173.596C111.815 173.26 111.89 172.989 112.039 172.784C112.188 172.579 112.38 172.429 112.613 172.336C112.846 172.243 113.089 172.196 113.341 172.196C113.612 172.196 113.859 172.233 114.083 172.308L113.971 173.316C113.878 173.297 113.784 173.279 113.691 173.26C113.598 173.241 113.495 173.232 113.383 173.232C113.252 173.232 113.14 173.274 113.047 173.358C112.954 173.433 112.907 173.526 112.907 173.638C112.907 173.825 112.982 173.988 113.131 174.128C113.29 174.259 113.448 174.352 113.607 174.408C113.906 174.324 114.181 174.231 114.433 174.128L114.713 175.066C114.358 175.197 113.924 175.337 113.411 175.486C112.907 175.626 112.422 175.743 111.955 175.836ZM115.965 186.07L116.105 184.124C116.87 184.124 117.491 184.119 117.967 184.11C118.443 184.101 118.812 184.082 119.073 184.054C119.344 184.017 119.544 183.975 119.675 183.928C119.806 183.872 119.918 183.811 120.011 183.746C120.086 183.69 120.151 183.62 120.207 183.536C120.272 183.452 120.328 183.349 120.375 183.228C119.992 183.368 119.596 183.438 119.185 183.438C118.438 183.438 117.85 183.284 117.421 182.976C116.992 182.659 116.777 182.103 116.777 181.31C116.777 180.899 116.847 180.493 116.987 180.092C117.127 179.681 117.328 179.313 117.589 178.986C117.85 178.65 118.158 178.384 118.513 178.188C118.868 177.983 119.26 177.88 119.689 177.88C120.324 177.88 120.846 178.067 121.257 178.44C121.677 178.804 121.985 179.299 122.181 179.924C122.386 180.54 122.489 181.226 122.489 181.982C122.489 182.645 122.391 183.223 122.195 183.718C121.999 184.203 121.766 184.586 121.495 184.866C121.271 185.099 121.014 185.295 120.725 185.454C120.436 185.613 120.081 185.739 119.661 185.832C119.25 185.916 118.742 185.977 118.135 186.014C117.538 186.051 116.814 186.07 115.965 186.07ZM118.709 180.932C118.709 181.333 119.022 181.534 119.647 181.534C119.946 181.534 120.244 181.487 120.543 181.394C120.496 180.881 120.389 180.489 120.221 180.218C120.053 179.947 119.838 179.812 119.577 179.812C119.353 179.812 119.152 179.919 118.975 180.134C118.798 180.349 118.709 180.615 118.709 180.932ZM119.661 176.578C119.372 176.578 119.124 176.48 118.919 176.284C118.723 176.088 118.625 175.845 118.625 175.556C118.625 175.267 118.723 175.019 118.919 174.814C119.124 174.609 119.372 174.506 119.661 174.506C119.941 174.506 120.179 174.609 120.375 174.814C120.58 175.019 120.683 175.267 120.683 175.556C120.683 175.845 120.58 176.088 120.375 176.284C120.179 176.48 119.941 176.578 119.661 176.578ZM127.471 186.07C126.603 186.07 125.931 185.981 125.455 185.804C124.989 185.627 124.657 185.351 124.461 184.978C124.275 184.595 124.172 184.115 124.153 183.536L123.859 175.752H125.819L126.113 182.598C126.132 183.027 126.179 183.349 126.253 183.564C126.328 183.779 126.468 183.923 126.673 183.998C126.879 184.073 127.191 184.11 127.611 184.11C127.957 184.11 128.209 184.203 128.367 184.39C128.526 184.567 128.605 184.791 128.605 185.062C128.605 185.351 128.507 185.594 128.311 185.79C128.115 185.977 127.835 186.07 127.471 186.07ZM127.49 186.07L127.63 184.11H129.59C130.076 184.11 130.398 184.068 130.556 183.984C130.715 183.9 130.794 183.769 130.794 183.592C130.794 183.387 130.692 183.149 130.486 182.878C130.29 182.598 130.043 182.309 129.744 182.01C129.446 181.711 129.147 181.422 128.848 181.142C128.55 180.862 128.298 180.619 128.092 180.414C127.896 180.199 127.798 180.045 127.798 179.952C127.798 179.569 127.826 179.294 127.882 179.126C127.948 178.958 128.032 178.823 128.134 178.72C128.349 178.505 128.694 178.258 129.17 177.978C129.656 177.698 130.239 177.395 130.92 177.068C131.602 176.732 132.348 176.377 133.16 176.004L133.958 177.712C133.034 178.123 132.255 178.482 131.62 178.79C130.986 179.098 130.449 179.378 130.01 179.63C130.626 180.19 131.158 180.727 131.606 181.24C132.054 181.753 132.479 182.337 132.88 182.99C133.076 183.317 133.286 183.559 133.51 183.718C133.734 183.877 133.949 183.984 134.154 184.04C134.369 184.087 134.56 184.11 134.728 184.11C135.074 184.11 135.326 184.203 135.484 184.39C135.643 184.567 135.722 184.791 135.722 185.062C135.722 185.351 135.624 185.594 135.428 185.79C135.232 185.977 134.952 186.07 134.588 186.07C134.224 186.07 133.823 185.995 133.384 185.846C132.955 185.697 132.591 185.435 132.292 185.062C131.994 185.426 131.611 185.687 131.144 185.846C130.687 185.995 130.122 186.07 129.45 186.07H127.49ZM134.6 186.07L134.74 184.11C134.945 184.11 135.127 184.059 135.286 183.956C135.444 183.844 135.608 183.662 135.776 183.41C135.944 183.158 136.14 182.808 136.364 182.36C136.784 181.52 137.227 180.946 137.694 180.638C138.17 180.321 138.655 180.162 139.15 180.162C139.7 180.162 140.195 180.316 140.634 180.624C141.072 180.932 141.418 181.333 141.67 181.828C141.922 182.313 142.048 182.831 142.048 183.382C142.048 183.877 141.94 184.325 141.726 184.726C141.52 185.118 141.231 185.431 140.858 185.664C140.494 185.888 140.074 186 139.598 186C139.243 186 138.837 185.949 138.38 185.846C137.922 185.743 137.442 185.529 136.938 185.202C136.648 185.529 136.326 185.757 135.972 185.888C135.617 186.009 135.16 186.07 134.6 186.07ZM139.094 182.122C138.823 182.122 138.608 182.257 138.45 182.528C138.291 182.799 138.104 183.158 137.89 183.606C138.179 183.755 138.445 183.867 138.688 183.942C138.94 184.007 139.154 184.04 139.332 184.04C139.612 184.04 139.817 183.998 139.948 183.914C140.078 183.83 140.144 183.681 140.144 183.466C140.144 183.27 140.097 183.069 140.004 182.864C139.91 182.659 139.784 182.486 139.626 182.346C139.467 182.197 139.29 182.122 139.094 182.122ZM151.593 191.516C150.967 191.516 150.356 191.441 149.759 191.292C149.171 191.143 148.639 190.905 148.163 190.578C147.687 190.261 147.309 189.85 147.029 189.346C146.749 188.842 146.609 188.235 146.609 187.526C146.609 186.733 146.772 186.009 147.099 185.356C147.435 184.693 147.901 184.115 148.499 183.62C148.079 183.396 147.724 183.074 147.435 182.654C147.145 182.225 147.001 181.693 147.001 181.058C147.001 180.47 147.155 179.961 147.463 179.532C147.771 179.103 148.181 178.771 148.695 178.538C149.208 178.305 149.768 178.188 150.375 178.188C150.664 178.188 150.939 178.207 151.201 178.244C151.462 178.281 151.728 178.337 151.999 178.412L151.691 180.274C151.495 180.227 151.294 180.19 151.089 180.162C150.883 180.134 150.701 180.12 150.543 180.12C150.048 180.12 149.661 180.223 149.381 180.428C149.101 180.633 148.961 180.913 148.961 181.268C148.961 181.557 149.087 181.819 149.339 182.052C149.591 182.276 149.88 182.444 150.207 182.556C151.019 182.183 151.915 181.921 152.895 181.772L153.357 183.62C151.714 183.919 150.505 184.404 149.731 185.076C148.956 185.739 148.569 186.485 148.569 187.316C148.569 187.736 148.662 188.091 148.849 188.38C149.045 188.669 149.297 188.898 149.605 189.066C149.913 189.243 150.239 189.369 150.585 189.444C150.939 189.519 151.275 189.556 151.593 189.556C152.237 189.556 152.834 189.495 153.385 189.374C153.945 189.253 154.435 189.103 154.855 188.926L155.415 190.732C155.191 190.844 154.873 190.961 154.463 191.082C154.061 191.203 153.609 191.306 153.105 191.39C152.61 191.474 152.106 191.516 151.593 191.516ZM155.489 186L155.195 175.752H157.155L157.449 186H155.489ZM161.249 184.11C161.875 184.11 162.29 184.031 162.495 183.872C162.701 183.704 162.803 183.517 162.803 183.312C162.803 183.088 162.738 182.827 162.607 182.528C162.486 182.229 162.332 181.917 162.145 181.59C161.959 181.263 161.763 180.951 161.557 180.652C161.352 180.353 161.175 180.092 161.025 179.868L162.691 178.762C163.298 179.574 163.774 180.363 164.119 181.128C164.474 181.884 164.707 182.5 164.819 182.976C164.922 183.424 165.118 183.727 165.407 183.886C165.697 184.035 166 184.11 166.317 184.11C166.672 184.11 166.924 184.203 167.073 184.39C167.232 184.567 167.311 184.791 167.311 185.062C167.311 185.351 167.213 185.594 167.017 185.79C166.831 185.977 166.551 186.07 166.177 186.07C165.3 186.07 164.647 185.799 164.217 185.258C163.965 185.501 163.611 185.701 163.153 185.86C162.696 186.009 162.155 186.084 161.529 186.084C161.1 186.084 160.619 186.033 160.087 185.93C159.555 185.827 159.089 185.664 158.687 185.44L159.373 183.662C159.719 183.821 160.05 183.937 160.367 184.012C160.694 184.077 160.988 184.11 161.249 184.11ZM166.195 186.07L166.335 184.11C166.895 184.11 167.325 184.082 167.623 184.026C167.922 183.97 168.127 183.867 168.239 183.718C168.361 183.559 168.421 183.335 168.421 183.046C168.421 182.785 168.384 182.472 168.309 182.108C168.244 181.744 168.155 181.371 168.043 180.988C167.931 180.596 167.819 180.232 167.707 179.896L169.639 179.364C169.751 179.681 169.863 180.05 169.975 180.47C170.097 180.89 170.195 181.324 170.269 181.772C170.344 182.22 170.381 182.645 170.381 183.046C170.381 183.681 170.279 184.199 170.073 184.6C169.868 184.992 169.579 185.295 169.205 185.51C168.841 185.725 168.403 185.874 167.889 185.958C167.376 186.033 166.811 186.07 166.195 186.07ZM169.653 189.318C169.383 189.318 169.149 189.225 168.953 189.038C168.767 188.851 168.673 188.623 168.673 188.352C168.673 188.081 168.767 187.848 168.953 187.652C169.149 187.456 169.383 187.358 169.653 187.358C169.915 187.358 170.139 187.456 170.325 187.652C170.512 187.848 170.605 188.081 170.605 188.352C170.605 188.623 170.512 188.851 170.325 189.038C170.139 189.225 169.915 189.318 169.653 189.318ZM167.231 189.318C166.961 189.318 166.727 189.225 166.531 189.038C166.345 188.851 166.251 188.623 166.251 188.352C166.251 188.081 166.345 187.848 166.531 187.652C166.727 187.456 166.961 187.358 167.231 187.358C167.493 187.358 167.717 187.456 167.903 187.652C168.09 187.848 168.183 188.081 168.183 188.352C168.183 188.623 168.09 188.851 167.903 189.038C167.717 189.225 167.493 189.318 167.231 189.318ZM172.347 186L172.053 175.752H174.013L174.307 186H172.347ZM172.263 190.326L172.025 189.346C172.323 189.29 172.561 189.243 172.739 189.206C172.571 189.085 172.426 188.926 172.305 188.73C172.183 188.534 172.123 188.319 172.123 188.086C172.123 187.75 172.197 187.479 172.347 187.274C172.496 187.069 172.687 186.919 172.921 186.826C173.154 186.733 173.397 186.686 173.649 186.686C173.919 186.686 174.167 186.723 174.391 186.798L174.279 187.806C174.185 187.787 174.092 187.769 173.999 187.75C173.905 187.731 173.803 187.722 173.691 187.722C173.56 187.722 173.448 187.759 173.355 187.834C173.261 187.918 173.215 188.016 173.215 188.128C173.215 188.315 173.289 188.473 173.439 188.604C173.597 188.744 173.756 188.842 173.915 188.898C174.213 188.814 174.489 188.721 174.741 188.618L175.021 189.556C174.666 189.687 174.232 189.822 173.719 189.962C173.215 190.111 172.729 190.233 172.263 190.326Z" fill="white"/>
</svg>
