<svg width="280" height="192" viewBox="0 0 280 192" fill="none" xmlns="http://www.w3.org/2000/svg">
<path d="M81.954 33.588C79.266 33.588 77.1194 33.3173 75.514 32.776C73.9087 32.2347 72.7514 31.488 72.042 30.536C71.3327 29.584 70.978 28.5013 70.978 27.288C70.978 26.4107 71.09 25.5147 71.314 24.6C71.538 23.6667 71.7527 22.8453 71.958 22.136L75.458 22.948C75.3274 23.4707 75.1967 24.0307 75.066 24.628C74.954 25.2067 74.898 25.72 74.898 26.168C74.898 26.8773 75.1407 27.4933 75.626 28.016C76.13 28.5387 76.9514 28.9493 78.09 29.248C79.2287 29.528 80.7594 29.668 82.682 29.668V29.752L82.71 29.668C86.3314 29.668 89.0194 29.4627 90.774 29.052C92.5474 28.6413 93.434 27.9227 93.434 26.896C93.434 26.224 93.322 25.4213 93.098 24.488C92.874 23.5547 92.5847 22.5933 92.23 21.604L95.898 20.54C96.1407 21.1747 96.374 21.8747 96.598 22.64C96.822 23.3867 96.9994 24.1427 97.13 24.908C97.2794 25.6547 97.354 26.3547 97.354 27.008C97.354 28.1653 97.102 29.164 96.598 30.004C96.094 30.8253 95.254 31.5067 94.078 32.048C92.9207 32.5707 91.3527 32.9533 89.374 33.196C87.3954 33.4573 84.9314 33.588 81.982 33.588V33.56L81.954 33.588ZM81.73 20.764C81.1887 20.764 80.722 20.5773 80.33 20.204C79.9567 19.812 79.77 19.3547 79.77 18.832C79.77 18.2907 79.9567 17.824 80.33 17.432C80.722 17.04 81.1887 16.844 81.73 16.844C82.2527 16.844 82.7007 17.04 83.074 17.432C83.4474 17.824 83.634 18.2907 83.634 18.832C83.634 19.3547 83.4474 19.812 83.074 20.204C82.7007 20.5773 82.2527 20.764 81.73 20.764ZM86.574 20.792C86.0327 20.792 85.566 20.6053 85.174 20.232C84.8007 19.8587 84.614 19.4013 84.614 18.86C84.614 18.3187 84.8007 17.852 85.174 17.46C85.566 17.068 86.0327 16.872 86.574 16.872C87.0967 16.872 87.5447 17.068 87.918 17.46C88.2914 17.852 88.478 18.3187 88.478 18.86C88.478 19.4013 88.2914 19.8587 87.918 20.232C87.5447 20.6053 87.0967 20.792 86.574 20.792ZM107.642 33.14C105.906 33.14 104.562 32.9627 103.61 32.608C102.676 32.2533 102.014 31.7027 101.622 30.956C101.248 30.1907 101.043 29.2293 101.006 28.072L100.418 12.504H104.338L104.926 26.196C104.963 27.0547 105.056 27.6987 105.206 28.128C105.355 28.5573 105.635 28.8467 106.046 28.996C106.456 29.1453 107.082 29.22 107.922 29.22C108.612 29.22 109.116 29.4067 109.434 29.78C109.751 30.1347 109.91 30.5827 109.91 31.124C109.91 31.7027 109.714 32.188 109.322 32.58C108.93 32.9533 108.37 33.14 107.642 33.14ZM107.68 33.14L107.96 29.248C109.49 29.248 110.732 29.2387 111.684 29.22C112.636 29.2013 113.373 29.164 113.896 29.108C114.437 29.0333 114.838 28.9493 115.1 28.856C115.361 28.744 115.585 28.6227 115.772 28.492C115.921 28.38 116.052 28.24 116.164 28.072C116.294 27.904 116.406 27.6987 116.5 27.456C115.734 27.736 114.941 27.876 114.12 27.876C112.626 27.876 111.45 27.568 110.592 26.952C109.733 26.3173 109.304 25.2067 109.304 23.62C109.304 22.7987 109.444 21.9867 109.724 21.184C110.004 20.3627 110.405 19.6253 110.928 18.972C111.45 18.3 112.066 17.768 112.776 17.376C113.485 16.9653 114.269 16.76 115.128 16.76C116.397 16.76 117.442 17.1333 118.264 17.88C119.104 18.608 119.72 19.5973 120.112 20.848C120.522 22.08 120.728 23.452 120.728 24.964C120.728 26.2893 120.532 27.4467 120.14 28.436C119.748 29.4067 119.281 30.172 118.74 30.732C118.292 31.1987 117.778 31.5907 117.2 31.908C116.621 32.2253 115.912 32.4773 115.072 32.664C114.25 32.832 113.233 32.9533 112.02 33.028C110.825 33.1027 109.378 33.14 107.68 33.14ZM113.168 22.864C113.168 23.6667 113.793 24.068 115.044 24.068C115.641 24.068 116.238 23.9747 116.836 23.788C116.742 22.7613 116.528 21.9773 116.192 21.436C115.856 20.8947 115.426 20.624 114.904 20.624C114.456 20.624 114.054 20.8387 113.7 21.268C113.345 21.6973 113.168 22.2293 113.168 22.864ZM115.072 14.156C114.493 14.156 113.998 13.96 113.588 13.568C113.196 13.176 113 12.6907 113 12.112C113 11.5333 113.196 11.0387 113.588 10.628C113.998 10.2173 114.493 10.012 115.072 10.012C115.632 10.012 116.108 10.2173 116.5 10.628C116.91 11.0387 117.116 11.5333 117.116 12.112C117.116 12.6907 116.91 13.176 116.5 13.568C116.108 13.96 115.632 14.156 115.072 14.156ZM123.412 39.44L122.6 35.52C124.392 35.296 125.886 34.9973 127.08 34.624C128.294 34.2693 129.19 33.6627 129.768 32.804C129.507 32.8973 129.218 32.972 128.9 33.028C128.602 33.084 128.275 33.112 127.92 33.112C127.024 33.112 126.212 32.972 125.484 32.692C124.775 32.3933 124.206 31.936 123.776 31.32C123.347 30.704 123.132 29.9013 123.132 28.912C123.132 27.9973 123.282 27.1107 123.58 26.252C123.879 25.3933 124.29 24.628 124.812 23.956C125.354 23.2653 125.97 22.724 126.66 22.332C127.37 21.9213 128.116 21.716 128.9 21.716C129.815 21.716 130.627 21.9493 131.336 22.416C132.046 22.8827 132.634 23.4987 133.1 24.264C133.567 25.0107 133.922 25.8227 134.164 26.7C134.407 27.5773 134.528 28.4173 134.528 29.22C134.528 31.3293 134.08 33.1213 133.184 34.596C132.288 36.0707 131.01 37.2093 129.348 38.012C127.687 38.8333 125.708 39.3093 123.412 39.44ZM126.996 28.128C126.996 28.912 127.584 29.304 128.76 29.304C129.376 29.304 129.983 29.22 130.58 29.052C130.543 28.548 130.45 28.0533 130.3 27.568C130.17 27.064 129.974 26.6533 129.712 26.336C129.451 26.0187 129.124 25.86 128.732 25.86C128.21 25.86 127.79 26.112 127.472 26.616C127.155 27.1013 126.996 27.6053 126.996 28.128ZM136.21 39.468L134.782 35.996C136.107 35.5293 137.283 34.9787 138.31 34.344C139.336 33.728 140.139 33.0187 140.718 32.216C141.315 31.3947 141.614 30.48 141.614 29.472C141.614 28.688 141.436 27.8293 141.082 26.896C140.727 25.9627 140.298 25.0107 139.794 24.04L143.462 22.276C143.779 22.8547 144.068 23.48 144.33 24.152C144.591 24.8053 144.806 25.3933 144.974 25.916C145.142 26.4387 145.254 26.7933 145.31 26.98C145.571 27.876 145.926 28.4733 146.374 28.772C146.84 29.0707 147.587 29.22 148.614 29.22C149.304 29.22 149.808 29.4067 150.126 29.78C150.443 30.1347 150.602 30.5827 150.602 31.124C150.602 31.7027 150.406 32.188 150.014 32.58C149.622 32.9533 149.062 33.14 148.334 33.14C146.915 33.14 145.832 32.7573 145.086 31.992C144.768 33.1493 144.162 34.2133 143.266 35.184C142.388 36.1733 141.334 37.032 140.102 37.76C138.87 38.488 137.572 39.0573 136.21 39.468ZM162.871 33.504C160.781 33.504 159.11 33.392 157.859 33.168C156.609 32.944 155.638 32.636 154.947 32.244C154.275 31.852 153.762 31.3947 153.407 30.872C152.717 31.8613 151.933 32.4867 151.055 32.748C150.178 33.0093 149.282 33.14 148.367 33.14L148.647 29.22C149.413 29.22 149.973 29.052 150.327 28.716C150.701 28.3613 150.999 27.7827 151.223 26.98C151.466 26.1773 151.765 25.0853 152.119 23.704L155.675 24.572C155.283 26.084 155.087 27.064 155.087 27.512C155.087 27.9413 155.199 28.296 155.423 28.576C155.666 28.856 156.161 29.08 156.907 29.248C157.635 28.128 158.447 27.064 159.343 26.056C160.239 25.0293 161.191 24.124 162.199 23.34C163.207 22.556 164.253 21.94 165.335 21.492C166.418 21.044 167.519 20.82 168.639 20.82C170.506 20.82 171.953 21.352 172.979 22.416C174.025 23.48 174.547 24.852 174.547 26.532C174.547 27.8947 174.155 29.0987 173.371 30.144C172.606 31.1893 171.365 32.0107 169.647 32.608C167.949 33.2053 165.69 33.504 162.871 33.504ZM168.247 24.74C167.426 24.74 166.595 24.9733 165.755 25.44C164.934 25.9067 164.131 26.5133 163.347 27.26C162.582 28.0067 161.891 28.7813 161.275 29.584C161.555 29.584 161.854 29.584 162.171 29.584C164.318 29.584 166.007 29.4813 167.239 29.276C168.471 29.0707 169.339 28.7627 169.843 28.352C170.366 27.9413 170.627 27.428 170.627 26.812C170.627 26.2893 170.441 25.8133 170.067 25.384C169.694 24.9547 169.087 24.74 168.247 24.74ZM176.451 33.14C175.014 33.14 173.679 32.9533 172.447 32.58C171.215 32.188 170.273 31.712 169.619 31.152L172.139 28.436C172.811 28.716 173.502 28.9213 174.211 29.052C174.921 29.164 175.761 29.22 176.731 29.22C177.422 29.22 177.926 29.4067 178.243 29.78C178.561 30.1347 178.719 30.5827 178.719 31.124C178.719 31.7027 178.523 32.188 178.131 32.58C177.739 32.9533 177.179 33.14 176.451 33.14ZM176.477 33.14L176.757 29.22C177.205 29.22 177.55 29.1267 177.793 28.94C178.054 28.7533 178.306 28.436 178.549 27.988C178.791 27.5213 179.127 26.8773 179.557 26.056C180.49 24.2827 181.479 23.0507 182.525 22.36C183.589 21.6693 184.615 21.324 185.605 21.324C186.631 21.324 187.574 21.6693 188.433 22.36C189.31 23.032 190.131 24.2827 190.897 26.112C191.438 27.3813 191.979 28.2213 192.521 28.632C193.062 29.024 193.631 29.22 194.229 29.22C194.938 29.22 195.442 29.4067 195.741 29.78C196.039 30.1347 196.189 30.5827 196.189 31.124C196.189 31.7027 195.993 32.188 195.601 32.58C195.209 32.9533 194.658 33.14 193.949 33.14C193.127 33.14 192.371 33.0187 191.681 32.776C190.99 32.5333 190.421 32.1787 189.973 31.712C189.655 32.1787 189.217 32.5987 188.657 32.972C188.115 33.3267 187.453 33.504 186.669 33.504C186.202 33.504 185.651 33.4107 185.017 33.224C184.401 33.056 183.757 32.7667 183.085 32.356C182.431 31.9267 181.825 31.348 181.265 30.62C180.723 31.6093 180.098 32.2813 179.389 32.636C178.679 32.972 177.709 33.14 176.477 33.14ZM182.889 27.316C183.243 27.8947 183.757 28.4267 184.429 28.912C185.101 29.3787 185.801 29.612 186.529 29.612C186.902 29.612 187.21 29.472 187.453 29.192C187.695 28.8933 187.705 28.4547 187.481 27.876C187.35 27.5587 187.163 27.1853 186.921 26.756C186.697 26.3267 186.435 25.9627 186.137 25.664C185.857 25.3467 185.549 25.188 185.213 25.188C184.839 25.188 184.457 25.356 184.065 25.692C183.673 26.028 183.281 26.5693 182.889 27.316ZM193.949 33.14L194.229 29.22C195.088 29.22 195.704 29.136 196.077 28.968C196.451 28.7813 196.675 28.4453 196.749 27.96C196.824 27.456 196.843 26.728 196.805 25.776L196.301 12.504H200.249L200.809 26.056C200.847 27.1387 200.8 28.1187 200.669 28.996C200.557 29.8547 200.268 30.592 199.801 31.208C199.353 31.824 198.653 32.3 197.701 32.636C196.768 32.972 195.517 33.14 193.949 33.14ZM204.502 33L203.914 12.504H207.834L208.422 33H204.502Z" fill="white"/>
<path d="M144.947 111.947C144.675 111.65 144.331 111.427 143.976 111.242C143.203 110.839 142.358 110.594 141.518 110.374V116.879C142.881 116.725 144.445 116.231 145.161 114.959C145.502 114.351 145.57 113.604 145.431 112.928C145.356 112.561 145.2 112.225 144.947 111.947Z" fill="white"/>
<path d="M145.153 114.971C145.156 114.967 145.158 114.964 145.161 114.959C145.158 114.963 145.156 114.967 145.153 114.971Z" fill="white"/>
<path d="M135.126 101.547C134.892 101.889 134.745 102.278 134.704 102.691C134.664 103.105 134.686 103.566 134.844 103.955C134.993 104.327 135.307 104.601 135.631 104.822C135.994 105.069 136.394 105.262 136.801 105.425C137.142 105.563 137.526 105.694 137.94 105.821V99.9343C136.894 100.157 135.752 100.634 135.126 101.547Z" fill="white"/>
<path d="M145.188 114.91C145.179 114.926 145.17 114.942 145.161 114.958C145.171 114.939 145.18 114.925 145.188 114.91Z" fill="white"/>
<path d="M145.222 114.85C145.225 114.845 145.225 114.845 145.222 114.85V114.85Z" fill="white"/>
<path d="M143.81 79.4607C149.342 74.8131 153.039 64.3428 150.764 63.8848C147.741 63.2761 141.177 65.9452 138.004 66.4155C133.504 66.9588 128.603 61.5357 125.852 64.5586C123.615 67.0164 127.456 75.9545 133.464 79.8485C115.538 88.659 90.3412 132.889 134.298 136.098C195.12 140.538 164.664 88.0463 143.81 79.4607ZM149.033 114.342C148.846 116.067 147.932 117.626 146.566 118.684C145.124 119.802 143.315 120.322 141.518 120.468V122.373C141.518 122.883 141.295 123.376 140.914 123.713C140.389 124.177 139.618 124.292 138.982 123.999C138.353 123.709 137.94 123.065 137.94 122.373V120.291C137.632 120.232 137.326 120.163 137.024 120.08C135.344 119.618 133.786 118.718 132.647 117.387C132.08 116.724 131.618 115.971 131.299 115.158C131.215 114.946 131.141 114.73 131.075 114.511C131.016 114.313 130.955 114.112 130.934 113.905C130.899 113.559 130.968 113.206 131.129 112.897C131.461 112.263 132.159 111.88 132.873 111.944C133.575 112.006 134.191 112.493 134.412 113.163C134.48 113.369 134.526 113.58 134.603 113.784C134.679 113.987 134.77 114.184 134.878 114.371C135.09 114.741 135.357 115.081 135.663 115.377C136.296 115.986 137.101 116.382 137.94 116.617V109.539C136.299 109.114 134.605 108.565 133.249 107.511C132.591 106.999 132.032 106.362 131.666 105.609C131.279 104.814 131.119 103.928 131.113 103.048C131.106 102.154 131.276 101.269 131.649 100.455C131.998 99.6923 132.5 99.008 133.117 98.4407C134.434 97.2279 136.185 96.5514 137.94 96.3029V96.1472V94.3251C137.94 93.8155 138.163 93.3223 138.545 92.9848C139.069 92.5209 139.84 92.4062 140.476 92.6996C141.105 92.9889 141.518 93.6334 141.518 94.3251V96.1472V96.2921C141.752 96.3216 141.985 96.3568 142.217 96.3989C143.941 96.7109 145.627 97.4228 146.888 98.6657C147.485 99.2544 147.974 99.9559 148.318 100.721C148.414 100.934 148.498 101.153 148.571 101.375C148.639 101.583 148.707 101.797 148.739 102.013C148.791 102.359 148.738 102.716 148.59 103.033C148.287 103.681 147.607 104.094 146.891 104.063C146.188 104.033 145.551 103.575 145.299 102.918C145.224 102.722 145.187 102.515 145.111 102.32C145.033 102.123 144.933 101.935 144.818 101.757C144.594 101.411 144.304 101.115 143.973 100.871C143.256 100.341 142.386 100.065 141.517 99.9112V106.685C142.55 106.932 143.584 107.202 144.573 107.592C146.069 108.182 147.486 109.086 148.302 110.512C148.176 110.29 148.052 110.073 148.307 110.519C148.556 110.957 148.437 110.749 148.312 110.529C148.961 111.674 149.175 113.042 149.033 114.342Z" fill="white"/>
<path d="M145.134 115.005C145.124 115.023 145.115 115.04 145.108 115.052C145.114 115.041 145.123 115.025 145.134 115.005Z" fill="white"/>
<path d="M131.807 164.11C132.432 164.11 132.848 164.031 133.053 163.872C133.258 163.704 133.361 163.517 133.361 163.312C133.361 163.088 133.296 162.827 133.165 162.528C133.044 162.229 132.89 161.917 132.703 161.59C132.516 161.263 132.32 160.951 132.115 160.652C131.91 160.353 131.732 160.092 131.583 159.868L133.249 158.762C133.856 159.574 134.332 160.363 134.677 161.128C135.032 161.884 135.265 162.5 135.377 162.976C135.48 163.424 135.676 163.727 135.965 163.886C136.254 164.035 136.558 164.11 136.875 164.11C137.23 164.11 137.482 164.203 137.631 164.39C137.79 164.567 137.869 164.791 137.869 165.062C137.869 165.351 137.771 165.594 137.575 165.79C137.388 165.977 137.108 166.07 136.735 166.07C135.858 166.07 135.204 165.799 134.775 165.258C134.523 165.501 134.168 165.701 133.711 165.86C133.254 166.009 132.712 166.084 132.087 166.084C131.658 166.084 131.177 166.033 130.645 165.93C130.113 165.827 129.646 165.664 129.245 165.44L129.931 163.662C130.276 163.821 130.608 163.937 130.925 164.012C131.252 164.077 131.546 164.11 131.807 164.11ZM136.697 166.07L136.837 164.11C137.285 164.11 137.7 164.091 138.083 164.054C138.475 164.007 138.834 163.947 139.161 163.872C138.965 163.648 138.76 163.433 138.545 163.228C138.33 163.023 138.139 162.85 137.971 162.71C137.924 162.673 137.868 162.575 137.803 162.416C137.747 162.248 137.696 162.075 137.649 161.898C137.602 161.721 137.579 161.59 137.579 161.506C137.579 161.291 137.677 161.063 137.873 160.82C138.078 160.577 138.349 160.353 138.685 160.148C139.03 159.933 139.408 159.761 139.819 159.63C140.239 159.49 140.664 159.42 141.093 159.42C141.952 159.42 142.6 159.607 143.039 159.98C143.487 160.353 143.711 160.843 143.711 161.45C143.711 161.87 143.622 162.29 143.445 162.71C143.277 163.13 143.02 163.527 142.675 163.9C142.964 163.965 143.272 164.017 143.599 164.054C143.926 164.091 144.262 164.11 144.607 164.11C144.952 164.11 145.204 164.203 145.363 164.39C145.522 164.567 145.601 164.791 145.601 165.062C145.601 165.351 145.503 165.594 145.307 165.79C145.111 165.977 144.831 166.07 144.467 166.07C143.674 166.07 142.974 166.005 142.367 165.874C141.76 165.734 141.219 165.538 140.743 165.286C140.211 165.529 139.604 165.72 138.923 165.86C138.251 166 137.509 166.07 136.697 166.07ZM139.399 161.478C139.632 161.665 139.894 161.903 140.183 162.192C140.482 162.481 140.757 162.775 141.009 163.074C141.522 162.691 141.779 162.276 141.779 161.828C141.779 161.641 141.709 161.478 141.569 161.338C141.429 161.189 141.177 161.114 140.813 161.114C140.626 161.114 140.398 161.147 140.127 161.212C139.856 161.268 139.614 161.357 139.399 161.478ZM144.478 166.07L144.618 164.11C144.972 164.11 145.252 164.077 145.458 164.012C145.672 163.947 145.84 163.816 145.962 163.62C146.092 163.415 146.2 163.116 146.284 162.724C146.377 162.332 146.47 161.809 146.564 161.156L148.398 161.464C148.36 161.679 148.318 161.935 148.272 162.234C148.225 162.533 148.202 162.808 148.202 163.06C148.202 163.284 148.248 163.475 148.342 163.634C148.444 163.793 148.622 163.914 148.874 163.998C149.135 164.073 149.508 164.11 149.994 164.11C150.348 164.11 150.6 164.203 150.75 164.39C150.899 164.567 150.974 164.791 150.974 165.062C150.974 165.351 150.876 165.594 150.68 165.79C150.493 165.977 150.218 166.07 149.854 166.07C149.107 166.07 148.524 165.991 148.104 165.832C147.693 165.673 147.399 165.389 147.222 164.978C146.876 165.463 146.466 165.767 145.99 165.888C145.523 166.009 145.019 166.07 144.478 166.07ZM146.97 169.29C146.699 169.29 146.466 169.197 146.27 169.01C146.083 168.823 145.99 168.595 145.99 168.324C145.99 168.053 146.083 167.815 146.27 167.61C146.466 167.414 146.699 167.316 146.97 167.316C147.231 167.316 147.46 167.414 147.656 167.61C147.852 167.815 147.95 168.053 147.95 168.324C147.95 168.595 147.852 168.823 147.656 169.01C147.46 169.197 147.231 169.29 146.97 169.29ZM149.851 166.07L149.991 164.11C150.551 164.11 150.98 164.082 151.279 164.026C151.577 163.97 151.783 163.867 151.895 163.718C152.016 163.559 152.077 163.335 152.077 163.046C152.077 162.785 152.039 162.472 151.965 162.108C151.899 161.744 151.811 161.371 151.699 160.988C151.587 160.596 151.475 160.232 151.363 159.896L153.295 159.364C153.407 159.681 153.519 160.05 153.631 160.47C153.752 160.89 153.85 161.324 153.925 161.772C153.999 162.22 154.037 162.645 154.037 163.046C154.037 163.681 153.934 164.199 153.729 164.6C153.523 164.992 153.234 165.295 152.861 165.51C152.497 165.725 152.058 165.874 151.545 165.958C151.031 166.033 150.467 166.07 149.851 166.07ZM153.309 169.318C153.038 169.318 152.805 169.225 152.609 169.038C152.422 168.851 152.329 168.623 152.329 168.352C152.329 168.081 152.422 167.848 152.609 167.652C152.805 167.456 153.038 167.358 153.309 167.358C153.57 167.358 153.794 167.456 153.981 167.652C154.167 167.848 154.261 168.081 154.261 168.352C154.261 168.623 154.167 168.851 153.981 169.038C153.794 169.225 153.57 169.318 153.309 169.318ZM150.887 169.318C150.616 169.318 150.383 169.225 150.187 169.038C150 168.851 149.907 168.623 149.907 168.352C149.907 168.081 150 167.848 150.187 167.652C150.383 167.456 150.616 167.358 150.887 167.358C151.148 167.358 151.372 167.456 151.559 167.652C151.745 167.848 151.839 168.081 151.839 168.352C151.839 168.623 151.745 168.851 151.559 169.038C151.372 169.225 151.148 169.318 150.887 169.318ZM116.39 185.608C116.39 185.291 116.432 184.885 116.516 184.39C116.61 183.895 116.81 183.307 117.118 182.626L118.84 183.228C118.682 183.667 118.56 184.045 118.476 184.362C118.392 184.67 118.35 184.973 118.35 185.272C118.35 185.963 118.579 186.467 119.036 186.784C119.503 187.111 120.119 187.274 120.884 187.274C121.463 187.274 121.939 187.195 122.312 187.036C122.686 186.887 122.975 186.686 123.18 186.434C123.386 186.191 123.53 185.925 123.614 185.636C123.698 185.337 123.74 185.048 123.74 184.768C123.74 184.395 123.675 183.942 123.544 183.41C123.414 182.878 123.18 182.281 122.844 181.618L124.65 180.848C124.837 181.175 125.01 181.557 125.168 181.996C125.327 182.425 125.453 182.873 125.546 183.34C125.649 183.807 125.7 184.25 125.7 184.67C125.7 185.043 125.654 185.44 125.56 185.86C125.467 186.271 125.308 186.677 125.084 187.078C124.87 187.479 124.576 187.839 124.202 188.156C123.829 188.483 123.367 188.744 122.816 188.94C122.266 189.136 121.608 189.234 120.842 189.234C120.021 189.234 119.274 189.113 118.602 188.87C117.93 188.627 117.394 188.235 116.992 187.694C116.591 187.162 116.39 186.467 116.39 185.608ZM120.954 180.288C120.665 180.288 120.418 180.19 120.212 179.994C120.016 179.798 119.918 179.555 119.918 179.266C119.918 178.977 120.016 178.729 120.212 178.524C120.418 178.319 120.665 178.216 120.954 178.216C121.234 178.216 121.472 178.319 121.668 178.524C121.874 178.729 121.976 178.977 121.976 179.266C121.976 179.555 121.874 179.798 121.668 179.994C121.472 180.19 121.234 180.288 120.954 180.288ZM127.201 189.22L126.795 187.26C127.691 187.148 128.438 186.999 129.035 186.812C129.642 186.635 130.09 186.331 130.379 185.902C130.249 185.949 130.104 185.986 129.945 186.014C129.796 186.042 129.633 186.056 129.455 186.056C129.007 186.056 128.601 185.986 128.237 185.846C127.883 185.697 127.598 185.468 127.383 185.16C127.169 184.852 127.061 184.451 127.061 183.956C127.061 183.499 127.136 183.055 127.285 182.626C127.435 182.197 127.64 181.814 127.901 181.478C128.172 181.133 128.48 180.862 128.825 180.666C129.18 180.461 129.553 180.358 129.945 180.358C130.403 180.358 130.809 180.475 131.163 180.708C131.518 180.941 131.812 181.249 132.045 181.632C132.279 182.005 132.456 182.411 132.577 182.85C132.699 183.289 132.759 183.709 132.759 184.11C132.759 185.165 132.535 186.061 132.087 186.798C131.639 187.535 131 188.105 130.169 188.506C129.339 188.917 128.349 189.155 127.201 189.22ZM128.993 183.564C128.993 183.956 129.287 184.152 129.875 184.152C130.183 184.152 130.487 184.11 130.785 184.026C130.767 183.774 130.72 183.527 130.645 183.284C130.58 183.032 130.482 182.827 130.351 182.668C130.221 182.509 130.057 182.43 129.861 182.43C129.6 182.43 129.39 182.556 129.231 182.808C129.073 183.051 128.993 183.303 128.993 183.564ZM133.6 189.234L132.886 187.498C133.549 187.265 134.137 186.989 134.65 186.672C135.163 186.364 135.565 186.009 135.854 185.608C136.153 185.197 136.302 184.74 136.302 184.236C136.302 183.844 136.213 183.415 136.036 182.948C135.859 182.481 135.644 182.005 135.392 181.52L137.226 180.638C137.385 180.927 137.529 181.24 137.66 181.576C137.791 181.903 137.898 182.197 137.982 182.458C138.066 182.719 138.122 182.897 138.15 182.99C138.281 183.438 138.458 183.737 138.682 183.886C138.915 184.035 139.289 184.11 139.802 184.11C140.147 184.11 140.399 184.203 140.558 184.39C140.717 184.567 140.796 184.791 140.796 185.062C140.796 185.351 140.698 185.594 140.502 185.79C140.306 185.977 140.026 186.07 139.662 186.07C138.953 186.07 138.411 185.879 138.038 185.496C137.879 186.075 137.576 186.607 137.128 187.092C136.689 187.587 136.162 188.016 135.546 188.38C134.93 188.744 134.281 189.029 133.6 189.234ZM136.456 179.21C136.167 179.21 135.919 179.112 135.714 178.916C135.518 178.72 135.42 178.477 135.42 178.188C135.42 177.899 135.518 177.651 135.714 177.446C135.919 177.241 136.167 177.138 136.456 177.138C136.736 177.138 136.974 177.241 137.17 177.446C137.375 177.651 137.478 177.899 137.478 178.188C137.478 178.477 137.375 178.72 137.17 178.916C136.974 179.112 136.736 179.21 136.456 179.21ZM139.679 186.07L139.819 184.11C140.425 184.11 140.85 184.045 141.093 183.914C141.335 183.774 141.457 183.485 141.457 183.046C141.457 182.785 141.419 182.472 141.345 182.108C141.279 181.744 141.191 181.371 141.079 180.988C140.967 180.596 140.855 180.232 140.743 179.896L142.675 179.364C142.787 179.681 142.899 180.05 143.011 180.47C143.123 180.89 143.216 181.324 143.291 181.772C143.375 182.22 143.417 182.645 143.417 183.046C143.417 183.681 143.319 184.199 143.123 184.6C142.927 184.992 142.651 185.295 142.297 185.51C141.951 185.725 141.555 185.874 141.107 185.958C140.659 186.033 140.183 186.07 139.679 186.07ZM140.225 177.908L139.987 176.928C140.285 176.872 140.523 176.825 140.701 176.788C140.533 176.667 140.388 176.508 140.267 176.312C140.145 176.116 140.085 175.901 140.085 175.668C140.085 175.332 140.159 175.061 140.309 174.856C140.458 174.651 140.649 174.501 140.883 174.408C141.116 174.315 141.359 174.268 141.611 174.268C141.881 174.268 142.129 174.305 142.353 174.38L142.241 175.388C142.147 175.369 142.054 175.351 141.961 175.332C141.867 175.313 141.765 175.304 141.653 175.304C141.522 175.304 141.41 175.346 141.317 175.43C141.223 175.505 141.177 175.598 141.177 175.71C141.177 175.897 141.251 176.06 141.401 176.2C141.559 176.331 141.718 176.424 141.877 176.48C142.175 176.396 142.451 176.303 142.703 176.2L142.983 177.138C142.628 177.269 142.194 177.409 141.681 177.558C141.177 177.698 140.691 177.815 140.225 177.908ZM148.56 186.07C147.692 186.07 147.02 185.981 146.544 185.804C146.077 185.627 145.746 185.351 145.55 184.978C145.363 184.595 145.261 184.115 145.242 183.536L144.948 175.752H146.908L147.202 182.598C147.221 183.027 147.267 183.349 147.342 183.564C147.417 183.779 147.557 183.923 147.762 183.998C147.967 184.073 148.28 184.11 148.7 184.11C149.045 184.11 149.297 184.203 149.456 184.39C149.615 184.567 149.694 184.791 149.694 185.062C149.694 185.351 149.596 185.594 149.4 185.79C149.204 185.977 148.924 186.07 148.56 186.07ZM148.579 186.07L148.719 184.124C148.999 184.133 149.26 184.133 149.503 184.124C149.755 184.105 149.988 184.087 150.203 184.068C149.998 183.825 149.825 183.555 149.685 183.256C149.554 182.948 149.489 182.603 149.489 182.22C149.489 181.641 149.634 181.137 149.923 180.708C150.212 180.269 150.576 179.929 151.015 179.686C151.463 179.443 151.92 179.322 152.387 179.322C152.947 179.322 153.432 179.453 153.843 179.714C154.254 179.975 154.571 180.321 154.795 180.75C155.028 181.17 155.145 181.623 155.145 182.108C155.145 182.5 155.08 182.859 154.949 183.186C154.818 183.513 154.646 183.802 154.431 184.054C154.711 184.073 154.991 184.087 155.271 184.096C155.56 184.105 155.84 184.11 156.111 184.11C156.466 184.11 156.718 184.203 156.867 184.39C157.026 184.567 157.105 184.791 157.105 185.062C157.105 185.351 157.007 185.594 156.811 185.79C156.615 185.977 156.335 186.07 155.971 186.07C155.28 186.07 154.608 186.023 153.955 185.93C153.302 185.837 152.732 185.701 152.247 185.524C151.902 185.673 151.407 185.804 150.763 185.916C150.119 186.028 149.391 186.079 148.579 186.07ZM151.421 182.36C151.421 182.593 151.486 182.813 151.617 183.018C151.748 183.223 151.93 183.415 152.163 183.592C152.499 183.443 152.756 183.256 152.933 183.032C153.12 182.808 153.213 182.565 153.213 182.304C153.213 182.052 153.134 181.805 152.975 181.562C152.826 181.319 152.616 181.198 152.345 181.198C152.084 181.198 151.864 181.31 151.687 181.534C151.51 181.758 151.421 182.033 151.421 182.36ZM152.401 178.02C152.112 178.02 151.864 177.922 151.659 177.726C151.463 177.53 151.365 177.287 151.365 176.998C151.365 176.709 151.463 176.461 151.659 176.256C151.864 176.051 152.112 175.948 152.401 175.948C152.681 175.948 152.919 176.051 153.115 176.256C153.32 176.461 153.423 176.709 153.423 176.998C153.423 177.287 153.32 177.53 153.115 177.726C152.919 177.922 152.681 178.02 152.401 178.02ZM155.989 186.07L156.129 184.11C156.559 184.11 156.867 184.068 157.053 183.984C157.24 183.891 157.352 183.723 157.389 183.48C157.427 183.228 157.436 182.864 157.417 182.388L157.165 175.752H159.139L159.419 182.528C159.438 183.069 159.415 183.559 159.349 183.998C159.293 184.427 159.149 184.796 158.915 185.104C158.691 185.412 158.341 185.65 157.865 185.818C157.399 185.986 156.773 186.07 155.989 186.07ZM161.266 186L160.972 175.752H162.932L163.226 186H161.266Z" fill="white"/>
</svg>
