<svg width="280" height="192" viewBox="0 0 280 192" fill="none" xmlns="http://www.w3.org/2000/svg">
<path d="M72.2243 33.14C70.8243 33.14 69.6296 32.9533 68.6403 32.58C67.6509 32.2067 66.9043 31.572 66.4003 30.676C65.2243 30.9 64.0949 30.9747 63.0123 30.9C61.9296 30.8067 60.9683 30.5733 60.1283 30.2C59.2883 29.808 58.6256 29.2573 58.1403 28.548C57.6549 27.82 57.4123 26.924 57.4123 25.86C57.4123 24.6093 57.7483 23.5173 58.4203 22.584C59.1109 21.632 60.0443 20.8293 61.2203 20.176C62.4149 19.5227 63.7589 19.0187 65.2523 18.664L65.1683 16.536H69.1163L69.5923 26.448C69.6483 27.6053 69.9003 28.3613 70.3483 28.716C70.8149 29.052 71.5336 29.22 72.5043 29.22C73.2136 29.22 73.7176 29.4067 74.0163 29.78C74.3149 30.1347 74.4643 30.5827 74.4643 31.124C74.4643 31.7027 74.2683 32.188 73.8763 32.58C73.5029 32.9533 72.9523 33.14 72.2243 33.14ZM61.3323 25.496C61.3323 25.9253 61.5376 26.2613 61.9483 26.504C62.3776 26.7467 62.9189 26.9053 63.5723 26.98C64.2256 27.036 64.9069 26.9987 65.6163 26.868L65.4483 22.556C64.1789 22.7613 63.1709 23.1347 62.4243 23.676C61.6963 24.2173 61.3323 24.824 61.3323 25.496ZM62.3403 13.624C61.7989 13.624 61.3323 13.4373 60.9403 13.064C60.5669 12.672 60.3803 12.2147 60.3803 11.692C60.3803 11.1507 60.5669 10.684 60.9403 10.292C61.3323 9.9 61.7989 9.704 62.3403 9.704C62.8629 9.704 63.3109 9.9 63.6843 10.292C64.0576 10.684 64.2443 11.1507 64.2443 11.692C64.2443 12.2147 64.0576 12.672 63.6843 13.064C63.3109 13.4373 62.8629 13.624 62.3403 13.624ZM67.1843 13.652C66.6429 13.652 66.1763 13.4653 65.7843 13.092C65.4109 12.7187 65.2243 12.2613 65.2243 11.72C65.2243 11.1787 65.4109 10.712 65.7843 10.32C66.1763 9.928 66.6429 9.732 67.1843 9.732C67.7069 9.732 68.1549 9.928 68.5283 10.32C68.9016 10.712 69.0883 11.1787 69.0883 11.72C69.0883 12.2613 68.9016 12.7187 68.5283 13.092C68.1549 13.4653 67.7069 13.652 67.1843 13.652ZM72.2148 33.14L72.4948 29.22C74.5108 29.22 76.4708 28.996 78.3748 28.548C80.2788 28.1 81.9682 27.3813 83.4428 26.392C82.5842 25.888 81.6322 25.496 80.5868 25.216C79.5602 24.936 78.4308 24.796 77.1988 24.796C76.7322 24.796 76.2468 24.824 75.7428 24.88C75.2575 24.9173 74.7628 24.992 74.2588 25.104L73.6988 21.268C74.2402 21.1373 74.8095 21.0347 75.4068 20.96C76.0042 20.8853 76.5455 20.848 77.0308 20.848C78.3002 20.848 79.4388 21.016 80.4468 21.352C81.4548 21.688 82.3695 22.08 83.1908 22.528C84.0308 22.976 84.8055 23.368 85.5148 23.704C86.2428 24.04 86.9522 24.208 87.6428 24.208H88.6788L89.1268 27.932C88.7162 27.9507 88.3242 28.0067 87.9508 28.1C87.5775 28.1933 87.2135 28.3053 86.8588 28.436C87.3255 28.7347 87.8855 28.94 88.5388 29.052C89.1922 29.164 89.9482 29.22 90.8068 29.22C91.5162 29.22 92.0202 29.4067 92.3188 29.78C92.6175 30.1347 92.7668 30.5827 92.7668 31.124C92.7668 31.7027 92.5708 32.188 92.1788 32.58C91.8055 32.9533 91.2548 33.14 90.5268 33.14C89.0335 33.14 87.7175 32.9253 86.5788 32.496C85.4402 32.0667 84.5255 31.2267 83.8348 29.976C82.9762 30.4613 82.0242 30.9467 80.9788 31.432C79.9522 31.9173 78.7295 32.328 77.3108 32.664C75.8922 32.9813 74.1935 33.14 72.2148 33.14ZM90.5352 33.14L90.8152 29.22C91.9352 29.22 92.7938 29.164 93.3912 29.052C93.9885 28.94 94.3992 28.7347 94.6232 28.436C94.8658 28.1187 94.9872 27.6707 94.9872 27.092C94.9872 26.5693 94.9125 25.944 94.7632 25.216C94.6325 24.488 94.4552 23.7413 94.2312 22.976C94.0072 22.192 93.7832 21.464 93.5592 20.792L97.4232 19.728C97.6472 20.3627 97.8712 21.1 98.0952 21.94C98.3378 22.78 98.5338 23.648 98.6832 24.544C98.8325 25.44 98.9072 26.2893 98.9072 27.092C98.9072 28.3613 98.7018 29.3973 98.2912 30.2C97.8805 30.984 97.3018 31.5907 96.5552 32.02C95.8272 32.4493 94.9498 32.748 93.9232 32.916C92.8965 33.0653 91.7672 33.14 90.5352 33.14ZM97.4512 39.636C96.9098 39.636 96.4432 39.4493 96.0512 39.076C95.6778 38.7027 95.4912 38.2453 95.4912 37.704C95.4912 37.1627 95.6778 36.696 96.0512 36.304C96.4432 35.912 96.9098 35.716 97.4512 35.716C97.9738 35.716 98.4218 35.912 98.7952 36.304C99.1685 36.696 99.3552 37.1627 99.3552 37.704C99.3552 38.2453 99.1685 38.7027 98.7952 39.076C98.4218 39.4493 97.9738 39.636 97.4512 39.636ZM92.6072 39.636C92.0658 39.636 91.5992 39.4493 91.2072 39.076C90.8338 38.7027 90.6472 38.2453 90.6472 37.704C90.6472 37.1627 90.8338 36.696 91.2072 36.304C91.5992 35.912 92.0658 35.716 92.6072 35.716C93.1298 35.716 93.5778 35.912 93.9512 36.304C94.3245 36.696 94.5112 37.1627 94.5112 37.704C94.5112 38.2453 94.3245 38.7027 93.9512 39.076C93.5778 39.4493 93.1298 39.636 92.6072 39.636ZM101.046 39.468L99.6177 35.996C100.943 35.5293 102.119 34.9787 103.146 34.344C104.172 33.728 104.975 33.0187 105.554 32.216C106.151 31.3947 106.45 30.48 106.45 29.472C106.45 28.688 106.272 27.8293 105.918 26.896C105.563 25.9627 105.134 25.0107 104.63 24.04L108.298 22.276C108.615 22.8547 108.904 23.48 109.166 24.152C109.427 24.8053 109.642 25.3933 109.81 25.916C109.978 26.4387 110.09 26.7933 110.146 26.98C110.407 27.876 110.762 28.4733 111.21 28.772C111.676 29.0707 112.423 29.22 113.45 29.22C114.14 29.22 114.644 29.4067 114.962 29.78C115.279 30.1347 115.438 30.5827 115.438 31.124C115.438 31.7027 115.242 32.188 114.85 32.58C114.458 32.9533 113.898 33.14 113.17 33.14C111.751 33.14 110.668 32.7573 109.922 31.992C109.604 33.1493 108.998 34.2133 108.102 35.184C107.224 36.1733 106.17 37.032 104.938 37.76C103.706 38.488 102.408 39.0573 101.046 39.468ZM127.707 33.504C125.616 33.504 123.946 33.392 122.695 33.168C121.444 32.944 120.474 32.636 119.783 32.244C119.111 31.852 118.598 31.3947 118.243 30.872C117.552 31.8613 116.768 32.4867 115.891 32.748C115.014 33.0093 114.118 33.14 113.203 33.14L113.483 29.22C114.248 29.22 114.808 29.052 115.163 28.716C115.536 28.3613 115.835 27.7827 116.059 26.98C116.302 26.1773 116.6 25.0853 116.955 23.704L120.511 24.572C120.119 26.084 119.923 27.064 119.923 27.512C119.923 27.9413 120.035 28.296 120.259 28.576C120.502 28.856 120.996 29.08 121.743 29.248C122.471 28.128 123.283 27.064 124.179 26.056C125.075 25.0293 126.027 24.124 127.035 23.34C128.043 22.556 129.088 21.94 130.171 21.492C131.254 21.044 132.355 20.82 133.475 20.82C135.342 20.82 136.788 21.352 137.815 22.416C138.86 23.48 139.383 24.852 139.383 26.532C139.383 27.8947 138.991 29.0987 138.207 30.144C137.442 31.1893 136.2 32.0107 134.483 32.608C132.784 33.2053 130.526 33.504 127.707 33.504ZM133.083 24.74C132.262 24.74 131.431 24.9733 130.591 25.44C129.77 25.9067 128.967 26.5133 128.183 27.26C127.418 28.0067 126.727 28.7813 126.111 29.584C126.391 29.584 126.69 29.584 127.007 29.584C129.154 29.584 130.843 29.4813 132.075 29.276C133.307 29.0707 134.175 28.7627 134.679 28.352C135.202 27.9413 135.463 27.428 135.463 26.812C135.463 26.2893 135.276 25.8133 134.903 25.384C134.53 24.9547 133.923 24.74 133.083 24.74ZM153.982 33.084C152.937 33.084 151.994 32.9067 151.154 32.552C150.333 32.1787 149.68 31.628 149.194 30.9C148.728 30.1533 148.494 29.2293 148.494 28.128C148.494 27.232 148.737 26.2427 149.222 25.16C149.726 24.0773 150.538 22.976 151.658 21.856L150.566 20.988L153.198 17.768C155.326 19.392 156.988 20.96 158.182 22.472C159.396 23.984 160.002 25.636 160.002 27.428C160.002 28.0067 159.909 28.632 159.722 29.304C159.536 29.9573 159.218 30.5733 158.77 31.152C158.322 31.712 157.706 32.1787 156.922 32.552C156.157 32.9067 155.177 33.084 153.982 33.084ZM154.29 29.22C154.981 29.22 155.485 29.024 155.802 28.632C156.138 28.2213 156.306 27.764 156.306 27.26C156.306 26.8307 156.176 26.3453 155.914 25.804C155.653 25.2627 155.084 24.6187 154.206 23.872C153.516 24.5253 153.021 25.16 152.722 25.776C152.442 26.3733 152.302 26.9147 152.302 27.4C152.302 27.9973 152.498 28.4547 152.89 28.772C153.282 29.0707 153.749 29.22 154.29 29.22ZM151.742 15.64C151.201 15.64 150.734 15.4533 150.342 15.08C149.969 14.688 149.782 14.2307 149.782 13.708C149.782 13.1667 149.969 12.7 150.342 12.308C150.734 11.916 151.201 11.72 151.742 11.72C152.265 11.72 152.713 11.916 153.086 12.308C153.46 12.7 153.646 13.1667 153.646 13.708C153.646 14.2307 153.46 14.688 153.086 15.08C152.713 15.4533 152.265 15.64 151.742 15.64ZM156.586 15.668C156.045 15.668 155.578 15.4813 155.186 15.108C154.813 14.7347 154.626 14.2773 154.626 13.736C154.626 13.1947 154.813 12.728 155.186 12.336C155.578 11.944 156.045 11.748 156.586 11.748C157.109 11.748 157.557 11.944 157.93 12.336C158.304 12.728 158.49 13.1947 158.49 13.736C158.49 14.2773 158.304 14.7347 157.93 15.108C157.557 15.4813 157.109 15.668 156.586 15.668ZM169.738 33.14C168.002 33.14 166.658 32.9627 165.706 32.608C164.773 32.2533 164.11 31.7027 163.718 30.956C163.345 30.1907 163.139 29.2293 163.102 28.072L162.57 14.464H166.49L167.022 26.196C167.059 27.0547 167.153 27.6987 167.302 28.128C167.451 28.5573 167.731 28.8467 168.142 28.996C168.553 29.1453 169.178 29.22 170.018 29.22C170.709 29.22 171.213 29.4067 171.53 29.78C171.847 30.1347 172.006 30.5827 172.006 31.124C172.006 31.7027 171.81 32.188 171.418 32.58C171.026 32.9533 170.466 33.14 169.738 33.14ZM161.758 12.672L161.282 10.712C161.879 10.6 162.355 10.5067 162.71 10.432C162.374 10.1893 162.085 9.872 161.842 9.48C161.599 9.088 161.478 8.65867 161.478 8.192C161.478 7.52 161.627 6.97867 161.926 6.568C162.225 6.15733 162.607 5.85867 163.074 5.672C163.541 5.48533 164.026 5.392 164.53 5.392C165.071 5.392 165.566 5.46667 166.014 5.616L165.79 7.632C165.603 7.59467 165.417 7.55733 165.23 7.52C165.043 7.48267 164.838 7.464 164.614 7.464C164.353 7.464 164.129 7.548 163.942 7.716C163.755 7.86533 163.662 8.052 163.662 8.276C163.662 8.64933 163.811 8.976 164.11 9.256C164.427 9.51733 164.745 9.704 165.062 9.816C165.659 9.648 166.21 9.46133 166.714 9.256L167.274 11.132C166.565 11.3933 165.697 11.6733 164.67 11.972C163.662 12.252 162.691 12.4853 161.758 12.672ZM169.777 33.14L170.057 29.248C171.588 29.248 172.829 29.2387 173.781 29.22C174.733 29.2013 175.471 29.164 175.993 29.108C176.535 29.0333 176.936 28.9493 177.197 28.856C177.459 28.744 177.683 28.6227 177.869 28.492C178.019 28.38 178.149 28.24 178.261 28.072C178.392 27.904 178.504 27.6987 178.597 27.456C177.832 27.736 177.039 27.876 176.217 27.876C174.724 27.876 173.548 27.568 172.689 26.952C171.831 26.3173 171.401 25.2067 171.401 23.62C171.401 22.7987 171.541 21.9867 171.821 21.184C172.101 20.3627 172.503 19.6253 173.025 18.972C173.548 18.3 174.164 17.768 174.873 17.376C175.583 16.9653 176.367 16.76 177.225 16.76C178.495 16.76 179.54 17.1333 180.361 17.88C181.201 18.608 181.817 19.5973 182.209 20.848C182.62 22.08 182.825 23.452 182.825 24.964C182.825 26.2893 182.629 27.4467 182.237 28.436C181.845 29.4067 181.379 30.172 180.837 30.732C180.389 31.1987 179.876 31.5907 179.297 31.908C178.719 32.2253 178.009 32.4773 177.169 32.664C176.348 32.832 175.331 32.9533 174.117 33.028C172.923 33.1027 171.476 33.14 169.777 33.14ZM175.265 22.864C175.265 23.6667 175.891 24.068 177.141 24.068C177.739 24.068 178.336 23.9747 178.933 23.788C178.84 22.7613 178.625 21.9773 178.289 21.436C177.953 20.8947 177.524 20.624 177.001 20.624C176.553 20.624 176.152 20.8387 175.797 21.268C175.443 21.6973 175.265 22.2293 175.265 22.864ZM177.169 14.156C176.591 14.156 176.096 13.96 175.685 13.568C175.293 13.176 175.097 12.6907 175.097 12.112C175.097 11.5333 175.293 11.0387 175.685 10.628C176.096 10.2173 176.591 10.012 177.169 10.012C177.729 10.012 178.205 10.2173 178.597 10.628C179.008 11.0387 179.213 11.5333 179.213 12.112C179.213 12.6907 179.008 13.176 178.597 13.568C178.205 13.96 177.729 14.156 177.169 14.156ZM192.79 33.14C191.054 33.14 189.71 32.9627 188.758 32.608C187.825 32.2533 187.162 31.7027 186.77 30.956C186.397 30.1907 186.191 29.2293 186.154 28.072L185.566 12.504H189.486L190.074 26.196C190.111 27.0547 190.205 27.6987 190.354 28.128C190.503 28.5573 190.783 28.8467 191.194 28.996C191.605 29.1453 192.23 29.22 193.07 29.22C193.761 29.22 194.265 29.4067 194.582 29.78C194.899 30.1347 195.058 30.5827 195.058 31.124C195.058 31.7027 194.862 32.188 194.47 32.58C194.078 32.9533 193.518 33.14 192.79 33.14ZM192.828 33.14L193.108 29.22H197.028C197.999 29.22 198.643 29.136 198.96 28.968C199.277 28.8 199.436 28.5387 199.436 28.184C199.436 27.7733 199.231 27.2973 198.82 26.756C198.428 26.196 197.933 25.6173 197.336 25.02C196.739 24.4227 196.141 23.844 195.544 23.284C194.947 22.724 194.443 22.2387 194.032 21.828C193.64 21.3987 193.444 21.0907 193.444 20.904C193.444 20.1387 193.5 19.588 193.612 19.252C193.743 18.916 193.911 18.6453 194.116 18.44C194.545 18.0107 195.236 17.516 196.188 16.956C197.159 16.396 198.325 15.7893 199.688 15.136C201.051 14.464 202.544 13.7547 204.168 13.008L205.764 16.424C203.916 17.2453 202.357 17.964 201.088 18.58C199.819 19.196 198.745 19.756 197.868 20.26C199.1 21.38 200.164 22.4533 201.06 23.48C201.956 24.5067 202.805 25.6733 203.608 26.98C204 27.6333 204.42 28.1187 204.868 28.436C205.316 28.7533 205.745 28.968 206.156 29.08C206.585 29.1733 206.968 29.22 207.304 29.22C207.995 29.22 208.499 29.4067 208.816 29.78C209.133 30.1347 209.292 30.5827 209.292 31.124C209.292 31.7027 209.096 32.188 208.704 32.58C208.312 32.9533 207.752 33.14 207.024 33.14C206.296 33.14 205.493 32.9907 204.616 32.692C203.757 32.3933 203.029 31.8707 202.432 31.124C201.835 31.852 201.069 32.3747 200.136 32.692C199.221 32.9907 198.092 33.14 196.748 33.14H192.828ZM207.047 33.14L207.327 29.22C207.738 29.22 208.102 29.1173 208.419 28.912C208.736 28.688 209.063 28.324 209.399 27.82C209.735 27.316 210.127 26.616 210.575 25.72C211.415 24.04 212.302 22.892 213.235 22.276C214.187 21.6413 215.158 21.324 216.147 21.324C217.248 21.324 218.238 21.632 219.115 22.248C219.992 22.864 220.683 23.6667 221.187 24.656C221.691 25.6267 221.943 26.6627 221.943 27.764C221.943 28.7533 221.728 29.6493 221.299 30.452C220.888 31.236 220.31 31.8613 219.563 32.328C218.835 32.776 217.995 33 217.043 33C216.334 33 215.522 32.8973 214.607 32.692C213.692 32.4867 212.731 32.0573 211.723 31.404C211.144 32.0573 210.5 32.5147 209.791 32.776C209.082 33.0187 208.167 33.14 207.047 33.14ZM216.035 25.244C215.494 25.244 215.064 25.5147 214.747 26.056C214.43 26.5973 214.056 27.316 213.627 28.212C214.206 28.5107 214.738 28.7347 215.223 28.884C215.727 29.0147 216.156 29.08 216.511 29.08C217.071 29.08 217.482 28.996 217.743 28.828C218.004 28.66 218.135 28.3613 218.135 27.932C218.135 27.54 218.042 27.1387 217.855 26.728C217.668 26.3173 217.416 25.972 217.099 25.692C216.782 25.3933 216.427 25.244 216.035 25.244Z" fill="white"/>
<path d="M135.263 123.095L134.114 121.604L132.45 122.501C131.592 122.964 130.636 123.226 129.659 123.265C128.681 123.304 127.707 123.121 126.814 122.728C125.919 122.328 125.13 121.731 124.505 120.984C123.881 120.238 123.438 119.36 123.21 118.419L122.773 116.614L120.882 116.765H120.376C119.483 116.764 118.599 116.577 117.784 116.218C116.968 115.858 116.239 115.333 115.643 114.677C114.996 113.957 114.523 113.103 114.259 112.178L108.623 117.758C108.367 118.012 108.18 118.326 108.081 118.671C107.982 119.015 107.974 119.379 108.057 119.728C108.14 120.077 108.311 120.399 108.556 120.664C108.8 120.93 109.109 121.13 109.453 121.245L119.769 124.653L123.206 134.893C123.321 135.232 123.521 135.537 123.788 135.779C124.055 136.021 124.38 136.192 124.733 136.276C124.892 136.312 125.055 136.331 125.219 136.332C125.778 136.34 126.319 136.129 126.721 135.746L137.579 124.984C136.665 124.546 135.871 123.898 135.263 123.095ZM172.014 117.77L166.378 112.19C166.113 113.115 165.64 113.969 164.993 114.689C164.397 115.345 163.668 115.87 162.853 116.23C162.037 116.589 161.154 116.776 160.26 116.777H159.75L157.863 116.626L157.426 118.455C157.196 119.395 156.752 120.27 156.128 121.016C155.504 121.762 154.715 122.358 153.823 122.76C152.93 123.155 151.956 123.34 150.978 123.301C149.999 123.261 149.044 122.998 148.187 122.533L146.523 121.636L145.373 123.127C144.762 123.918 143.968 124.555 143.057 124.984L153.916 135.746C154.112 135.941 154.345 136.096 154.602 136.202C154.859 136.308 155.135 136.363 155.414 136.364C155.579 136.363 155.743 136.344 155.904 136.308C156.256 136.224 156.582 136.053 156.849 135.811C157.116 135.569 157.316 135.264 157.43 134.925L160.867 124.689L171.184 121.277C171.526 121.159 171.833 120.958 172.075 120.691C172.317 120.425 172.487 120.102 172.567 119.754C172.648 119.405 172.638 119.042 172.538 118.699C172.437 118.355 172.25 118.043 171.993 117.79L172.014 117.77ZM137.47 89.036C137.193 89.0316 136.922 89.1138 136.696 89.2706C136.47 89.4275 136.3 89.651 136.211 89.9089C135.941 90.4908 135.806 91.567 135.806 93.1374C135.806 94.7318 135.952 95.8079 136.235 96.3899C136.328 96.6414 136.496 96.8593 136.717 97.0151C136.938 97.1709 137.202 97.2572 137.474 97.2627C137.646 97.2649 137.818 97.2332 137.977 97.1696C138.137 97.1059 138.283 97.0116 138.405 96.8921C138.709 96.5659 138.91 96.1603 138.984 95.7242C139.131 94.9008 139.194 94.0649 139.17 93.2291C139.17 91.575 139.029 90.439 138.741 89.889C138.641 89.6374 138.466 89.4215 138.239 89.2693C138.013 89.1171 137.744 89.0358 137.47 89.036ZM156.827 94.9231C156.7 94.9152 156.574 94.9401 156.46 94.9954C156.347 95.0506 156.25 95.1343 156.179 95.238C155.911 95.7026 155.789 96.2356 155.831 96.7685C155.789 97.3028 155.91 97.8372 156.179 98.303C156.252 98.404 156.349 98.4848 156.463 98.5379C156.576 98.5909 156.702 98.6144 156.827 98.606C156.953 98.6135 157.079 98.5897 157.194 98.5368C157.309 98.4838 157.408 98.4035 157.483 98.303C157.75 97.8366 157.87 97.3023 157.827 96.7685C157.869 96.2335 157.749 95.6982 157.483 95.23C157.408 95.1291 157.309 95.0482 157.194 94.9946C157.08 94.941 156.953 94.9164 156.827 94.9231ZM147.701 88.1831C147.574 88.176 147.447 88.2005 147.332 88.2541C147.216 88.3077 147.116 88.3887 147.041 88.49C146.774 88.9551 146.655 89.488 146.697 90.0205C146.654 90.5543 146.774 91.0887 147.041 91.5551C147.115 91.658 147.215 91.7409 147.33 91.7959C147.445 91.8509 147.573 91.8764 147.701 91.8699C147.827 91.8766 147.953 91.8512 148.067 91.796C148.18 91.7409 148.277 91.6579 148.349 91.5551C148.616 91.0887 148.736 90.5543 148.693 90.0205C148.734 89.4881 148.615 88.9555 148.349 88.49C148.276 88.3889 148.179 88.3077 148.065 88.254C147.952 88.2003 147.827 88.1759 147.701 88.1831Z" fill="white"/>
<path d="M169.149 89.4709C169.118 89.15 169.01 88.8405 168.834 88.5666C168.658 88.2926 168.419 88.0616 168.136 87.8915L163.359 85.0762L165.504 80.0577C165.63 79.7613 165.684 79.4415 165.662 79.1221C165.641 78.8027 165.545 78.4921 165.382 78.2137C165.217 77.9374 164.989 77.7014 164.715 77.5241C164.44 77.3467 164.128 77.2328 163.8 77.191L158.267 76.4882L158.128 71.055C158.121 70.7358 158.038 70.4224 157.886 70.139C157.733 69.8557 157.516 69.6098 157.25 69.4203C156.984 69.2319 156.677 69.1057 156.352 69.0515C156.027 68.9974 155.694 69.0169 155.378 69.1084L150.029 70.6602L147.647 65.7522C147.508 65.4634 147.301 65.2097 147.043 65.0111C146.786 64.8125 146.484 64.6742 146.162 64.6073C145.839 64.5403 145.505 64.5465 145.186 64.6252C144.866 64.704 144.57 64.8532 144.321 65.0612L140.067 68.599L135.829 65.0454C135.579 64.8374 135.283 64.6882 134.964 64.6094C134.644 64.5307 134.31 64.5245 133.988 64.5915C133.666 64.6585 133.364 64.7967 133.106 64.9953C132.848 65.194 132.642 65.4476 132.503 65.7364L130.12 70.6602L124.771 69.1084C124.456 69.0169 124.122 68.9974 123.798 69.0515C123.473 69.1057 123.165 69.2319 122.9 69.4203C122.633 69.6096 122.415 69.8553 122.262 70.1387C122.109 70.4221 122.025 70.7355 122.017 71.055L121.882 76.4882L116.366 77.191C116.038 77.2328 115.726 77.3467 115.451 77.5241C115.177 77.7014 114.949 77.9374 114.784 78.2137C114.621 78.4921 114.525 78.8027 114.504 79.1221C114.482 79.4415 114.536 79.7613 114.662 80.0577L116.774 85.0762L112.026 87.9073C111.744 88.076 111.507 88.3047 111.331 88.5758C111.155 88.847 111.046 89.1534 111.012 89.4716C110.977 89.7899 111.019 90.1115 111.133 90.4118C111.247 90.7121 111.431 90.9832 111.67 91.2043L115.724 94.9396L112.557 99.4133C112.369 99.6771 112.245 99.9793 112.197 100.296C112.148 100.614 112.176 100.937 112.277 101.243C112.379 101.548 112.551 101.827 112.782 102.057C113.013 102.288 113.295 102.464 113.607 102.572L118.871 104.357L117.845 109.699C117.785 110.014 117.8 110.339 117.889 110.647C117.978 110.956 118.139 111.241 118.36 111.48C118.58 111.718 118.853 111.903 119.16 112.021C119.466 112.14 119.796 112.188 120.125 112.163L125.687 111.729L126.99 117.024C127.064 117.334 127.211 117.624 127.421 117.871C127.63 118.117 127.895 118.313 128.196 118.444C128.497 118.575 128.825 118.637 129.154 118.624C129.484 118.612 129.806 118.527 130.096 118.374L135 115.772L138.391 120.088C138.59 120.343 138.847 120.55 139.142 120.692C139.437 120.835 139.763 120.909 140.093 120.909C140.423 120.909 140.749 120.835 141.044 120.692C141.34 120.55 141.597 120.343 141.795 120.088L145.183 115.772L150.086 118.374C150.376 118.528 150.698 118.614 151.028 118.626C151.358 118.639 151.686 118.577 151.987 118.446C152.288 118.316 152.554 118.119 152.763 117.872C152.972 117.625 153.119 117.335 153.192 117.024L154.488 111.741L160.049 112.175C160.378 112.2 160.708 112.152 161.015 112.033C161.321 111.915 161.595 111.729 161.814 111.492C162.035 111.252 162.196 110.968 162.285 110.659C162.374 110.35 162.389 110.026 162.329 109.711L161.287 104.357L166.555 102.552C166.867 102.444 167.149 102.268 167.38 102.037C167.611 101.807 167.783 101.528 167.885 101.223C167.986 100.918 168.014 100.594 167.965 100.277C167.917 99.9596 167.793 99.6574 167.605 99.3936L164.438 94.9199L168.492 91.1846C168.728 90.9653 168.91 90.6973 169.024 90.4005C169.137 90.1038 169.181 89.786 169.149 89.4709ZM129.973 97.1074C129.58 97.8298 128.966 98.4182 128.216 98.7934C127.326 99.2104 126.344 99.411 125.356 99.3778C124.625 99.3897 123.896 99.3114 123.186 99.1448C122.634 99.0117 122.114 98.7771 121.653 98.4538C121.251 98.1673 120.904 97.8144 120.628 97.4114C120.336 96.9626 120.116 96.4741 119.974 95.9623L123.566 95.5675C123.604 96.0506 123.815 96.5058 124.162 96.8547C124.313 96.9962 124.492 97.1074 124.688 97.182C124.883 97.2565 125.092 97.2929 125.303 97.289C125.536 97.2934 125.767 97.247 125.979 97.1534C126.191 97.0597 126.379 96.9212 126.528 96.7481C126.886 96.2806 127.059 95.7049 127.015 95.1252C127.066 94.5454 126.891 93.968 126.524 93.5063C126.359 93.3347 126.157 93.1997 125.933 93.1104C125.709 93.0211 125.467 92.9797 125.225 92.9891C124.878 92.9905 124.537 93.0746 124.232 93.2339C123.931 93.3994 123.665 93.6177 123.447 93.8775L120.419 93.455L121.543 86.8136H129.977V89.5499H124.256L123.95 91.4018C124.327 91.2315 124.722 91.0991 125.127 91.0069C125.501 90.918 125.885 90.873 126.271 90.8727C126.841 90.8492 127.41 90.9359 127.945 91.1278C128.479 91.3197 128.969 91.6129 129.385 91.9901C129.777 92.3549 130.086 92.7947 130.292 93.2816C130.498 93.7684 130.597 94.2914 130.582 94.8172C130.583 95.6181 130.373 96.406 129.973 97.1074ZM141.293 97.8181C140.508 98.8553 139.157 99.3817 137.239 99.3975C136.34 99.4337 135.445 99.2632 134.628 98.9C133.957 98.5633 133.393 98.0588 132.993 97.4391C132.639 96.865 132.395 96.2335 132.274 95.5754C132.095 94.7136 132.009 93.8363 132.016 92.9575C132.016 90.6094 132.454 88.9655 133.328 88.0258C134.203 87.086 135.538 86.6069 137.333 86.5885C138.053 86.5667 138.772 86.6711 139.454 86.8965C139.955 87.0696 140.415 87.3382 140.806 87.6862C141.132 87.9897 141.408 88.34 141.624 88.7247C141.842 89.1321 142.005 89.5646 142.11 90.0119C142.35 90.9551 142.469 91.9231 142.465 92.8943C142.468 95.1371 142.077 96.7783 141.293 97.8181ZM145.64 92.685C145.125 92.4217 144.71 92.0068 144.455 91.5005C144.2 90.9888 144.067 90.428 144.067 89.8599C144.067 89.2917 144.2 88.7309 144.455 88.2193C144.708 87.7113 145.124 87.2958 145.64 87.0347C146.223 86.7359 146.873 86.5826 147.532 86.5885C147.994 86.5647 148.456 86.6307 148.89 86.7826C149.325 86.9346 149.723 87.1693 150.062 87.473C150.375 87.7861 150.618 88.1578 150.777 88.5652C150.936 88.9727 151.007 89.4072 150.985 89.8421C151.007 90.277 150.936 90.7115 150.777 91.119C150.618 91.5264 150.375 91.8981 150.062 92.2112C149.724 92.5156 149.325 92.7509 148.891 92.9028C148.456 93.0548 147.994 93.1204 147.532 93.0957C146.876 93.1114 146.226 92.9689 145.64 92.6811V92.685ZM149.38 99.7924H147.557L154.913 86.5925H156.755L149.38 99.7924ZM159.273 98.8921C158.934 99.1978 158.534 99.4341 158.098 99.5868C157.662 99.7395 157.198 99.8054 156.735 99.7805C156.08 99.7953 155.432 99.65 154.851 99.358C154.334 99.096 153.917 98.6809 153.662 98.1735C153.409 97.6618 153.278 97.1019 153.278 96.5349C153.278 95.9678 153.409 95.4079 153.662 94.8962C153.917 94.3888 154.334 93.9737 154.851 93.7117C155.432 93.4197 156.08 93.2744 156.735 93.2892C157.197 93.2622 157.66 93.3256 158.096 93.4756C158.532 93.6255 158.932 93.8589 159.273 94.1618C159.87 94.816 160.2 95.6585 160.2 96.5309C160.2 97.4033 159.87 98.2458 159.273 98.9V98.8921Z" fill="white"/>
<path d="M107.93 166.07C107.23 166.07 106.633 165.977 106.138 165.79C105.644 165.603 105.27 165.286 105.018 164.838C104.43 164.95 103.866 164.987 103.324 164.95C102.783 164.903 102.302 164.787 101.882 164.6C101.462 164.404 101.131 164.129 100.888 163.774C100.646 163.41 100.524 162.962 100.524 162.43C100.524 161.805 100.692 161.259 101.028 160.792C101.374 160.316 101.84 159.915 102.428 159.588C103.026 159.261 103.698 159.009 104.444 158.832L104.402 157.768H106.376L106.614 162.724C106.642 163.303 106.768 163.681 106.992 163.858C107.226 164.026 107.585 164.11 108.07 164.11C108.425 164.11 108.677 164.203 108.826 164.39C108.976 164.567 109.05 164.791 109.05 165.062C109.05 165.351 108.952 165.594 108.756 165.79C108.57 165.977 108.294 166.07 107.93 166.07ZM102.484 162.248C102.484 162.463 102.587 162.631 102.792 162.752C103.007 162.873 103.278 162.953 103.604 162.99C103.931 163.018 104.272 162.999 104.626 162.934L104.542 160.778C103.908 160.881 103.404 161.067 103.03 161.338C102.666 161.609 102.484 161.912 102.484 162.248ZM102.988 156.312C102.718 156.312 102.484 156.219 102.288 156.032C102.102 155.836 102.008 155.607 102.008 155.346C102.008 155.075 102.102 154.842 102.288 154.646C102.484 154.45 102.718 154.352 102.988 154.352C103.25 154.352 103.474 154.45 103.66 154.646C103.847 154.842 103.94 155.075 103.94 155.346C103.94 155.607 103.847 155.836 103.66 156.032C103.474 156.219 103.25 156.312 102.988 156.312ZM105.41 156.326C105.14 156.326 104.906 156.233 104.71 156.046C104.524 155.859 104.43 155.631 104.43 155.36C104.43 155.089 104.524 154.856 104.71 154.66C104.906 154.464 105.14 154.366 105.41 154.366C105.672 154.366 105.896 154.464 106.082 154.66C106.269 154.856 106.362 155.089 106.362 155.36C106.362 155.631 106.269 155.859 106.082 156.046C105.896 156.233 105.672 156.326 105.41 156.326ZM107.926 166.07L108.066 164.11C109.074 164.11 110.054 163.998 111.006 163.774C111.958 163.55 112.802 163.191 113.54 162.696C113.11 162.444 112.634 162.248 112.112 162.108C111.598 161.968 111.034 161.898 110.418 161.898C110.184 161.898 109.942 161.912 109.69 161.94C109.447 161.959 109.2 161.996 108.948 162.052L108.668 160.134C108.938 160.069 109.223 160.017 109.522 159.98C109.82 159.943 110.091 159.924 110.334 159.924C110.968 159.924 111.538 160.008 112.042 160.176C112.546 160.344 113.003 160.54 113.414 160.764C113.834 160.988 114.221 161.184 114.576 161.352C114.94 161.52 115.294 161.604 115.64 161.604H116.158L116.382 163.466C116.176 163.475 115.98 163.503 115.794 163.55C115.607 163.597 115.425 163.653 115.248 163.718C115.481 163.867 115.761 163.97 116.088 164.026C116.414 164.082 116.792 164.11 117.222 164.11C117.576 164.11 117.828 164.203 117.978 164.39C118.127 164.567 118.202 164.791 118.202 165.062C118.202 165.351 118.104 165.594 117.908 165.79C117.721 165.977 117.446 166.07 117.082 166.07C116.335 166.07 115.677 165.963 115.108 165.748C114.538 165.533 114.081 165.113 113.736 164.488C113.306 164.731 112.83 164.973 112.308 165.216C111.794 165.459 111.183 165.664 110.474 165.832C109.764 165.991 108.915 166.07 107.926 166.07ZM117.086 166.07L117.226 164.11C117.786 164.11 118.215 164.082 118.514 164.026C118.813 163.97 119.018 163.867 119.13 163.718C119.251 163.559 119.312 163.335 119.312 163.046C119.312 162.785 119.275 162.472 119.2 162.108C119.135 161.744 119.046 161.371 118.934 160.988C118.822 160.596 118.71 160.232 118.598 159.896L120.53 159.364C120.642 159.681 120.754 160.05 120.866 160.47C120.987 160.89 121.085 161.324 121.16 161.772C121.235 162.22 121.272 162.645 121.272 163.046C121.272 163.681 121.169 164.199 120.964 164.6C120.759 164.992 120.469 165.295 120.096 165.51C119.732 165.725 119.293 165.874 118.78 165.958C118.267 166.033 117.702 166.07 117.086 166.07ZM120.544 169.318C120.273 169.318 120.04 169.225 119.844 169.038C119.657 168.851 119.564 168.623 119.564 168.352C119.564 168.081 119.657 167.848 119.844 167.652C120.04 167.456 120.273 167.358 120.544 167.358C120.805 167.358 121.029 167.456 121.216 167.652C121.403 167.848 121.496 168.081 121.496 168.352C121.496 168.623 121.403 168.851 121.216 169.038C121.029 169.225 120.805 169.318 120.544 169.318ZM118.122 169.318C117.851 169.318 117.618 169.225 117.422 169.038C117.235 168.851 117.142 168.623 117.142 168.352C117.142 168.081 117.235 167.848 117.422 167.652C117.618 167.456 117.851 167.358 118.122 167.358C118.383 167.358 118.607 167.456 118.794 167.652C118.981 167.848 119.074 168.081 119.074 168.352C119.074 168.623 118.981 168.851 118.794 169.038C118.607 169.225 118.383 169.318 118.122 169.318ZM122.341 169.234L121.627 167.498C122.29 167.265 122.878 166.989 123.391 166.672C123.905 166.364 124.306 166.009 124.595 165.608C124.894 165.197 125.043 164.74 125.043 164.236C125.043 163.844 124.955 163.415 124.777 162.948C124.6 162.481 124.385 162.005 124.133 161.52L125.967 160.638C126.126 160.927 126.271 161.24 126.401 161.576C126.532 161.903 126.639 162.197 126.723 162.458C126.807 162.719 126.863 162.897 126.891 162.99C127.022 163.438 127.199 163.737 127.423 163.886C127.657 164.035 128.03 164.11 128.543 164.11C128.889 164.11 129.141 164.203 129.299 164.39C129.458 164.567 129.537 164.791 129.537 165.062C129.537 165.351 129.439 165.594 129.243 165.79C129.047 165.977 128.767 166.07 128.403 166.07C127.694 166.07 127.153 165.879 126.779 165.496C126.621 166.075 126.317 166.607 125.869 167.092C125.431 167.587 124.903 168.016 124.287 168.38C123.671 168.744 123.023 169.029 122.341 169.234ZM135.672 166.252C134.627 166.252 133.791 166.196 133.166 166.084C132.541 165.972 132.055 165.818 131.71 165.622C131.374 165.426 131.117 165.197 130.94 164.936C130.595 165.431 130.203 165.743 129.764 165.874C129.325 166.005 128.877 166.07 128.42 166.07L128.56 164.11C128.943 164.11 129.223 164.026 129.4 163.858C129.587 163.681 129.736 163.391 129.848 162.99C129.969 162.589 130.119 162.043 130.296 161.352L132.074 161.786C131.878 162.542 131.78 163.032 131.78 163.256C131.78 163.471 131.836 163.648 131.948 163.788C132.069 163.928 132.317 164.04 132.69 164.124C133.054 163.564 133.46 163.032 133.908 162.528C134.356 162.015 134.832 161.562 135.336 161.17C135.84 160.778 136.363 160.47 136.904 160.246C137.445 160.022 137.996 159.91 138.556 159.91C139.489 159.91 140.213 160.176 140.726 160.708C141.249 161.24 141.51 161.926 141.51 162.766C141.51 163.447 141.314 164.049 140.922 164.572C140.539 165.095 139.919 165.505 139.06 165.804C138.211 166.103 137.081 166.252 135.672 166.252ZM138.36 161.87C137.949 161.87 137.534 161.987 137.114 162.22C136.703 162.453 136.302 162.757 135.91 163.13C135.527 163.503 135.182 163.891 134.874 164.292C135.014 164.292 135.163 164.292 135.322 164.292C136.395 164.292 137.24 164.241 137.856 164.138C138.472 164.035 138.906 163.881 139.158 163.676C139.419 163.471 139.55 163.214 139.55 162.906C139.55 162.645 139.457 162.407 139.27 162.192C139.083 161.977 138.78 161.87 138.36 161.87ZM148.81 166.042C148.287 166.042 147.816 165.953 147.396 165.776C146.985 165.589 146.658 165.314 146.416 164.95C146.182 164.577 146.066 164.115 146.066 163.564C146.066 163.116 146.187 162.621 146.43 162.08C146.682 161.539 147.088 160.988 147.648 160.428L147.102 159.994L148.418 158.384C149.482 159.196 150.312 159.98 150.91 160.736C151.516 161.492 151.82 162.318 151.82 163.214C151.82 163.503 151.773 163.816 151.68 164.152C151.586 164.479 151.428 164.787 151.204 165.076C150.98 165.356 150.672 165.589 150.28 165.776C149.897 165.953 149.407 166.042 148.81 166.042ZM148.964 164.11C149.309 164.11 149.561 164.012 149.72 163.816C149.888 163.611 149.972 163.382 149.972 163.13C149.972 162.915 149.906 162.673 149.776 162.402C149.645 162.131 149.36 161.809 148.922 161.436C148.576 161.763 148.329 162.08 148.18 162.388C148.04 162.687 147.97 162.957 147.97 163.2C147.97 163.499 148.068 163.727 148.264 163.886C148.46 164.035 148.693 164.11 148.964 164.11ZM147.69 157.32C147.419 157.32 147.186 157.227 146.99 157.04C146.803 156.844 146.71 156.615 146.71 156.354C146.71 156.083 146.803 155.85 146.99 155.654C147.186 155.458 147.419 155.36 147.69 155.36C147.951 155.36 148.175 155.458 148.362 155.654C148.548 155.85 148.642 156.083 148.642 156.354C148.642 156.615 148.548 156.844 148.362 157.04C148.175 157.227 147.951 157.32 147.69 157.32ZM150.112 157.334C149.841 157.334 149.608 157.241 149.412 157.054C149.225 156.867 149.132 156.639 149.132 156.368C149.132 156.097 149.225 155.864 149.412 155.668C149.608 155.472 149.841 155.374 150.112 155.374C150.373 155.374 150.597 155.472 150.784 155.668C150.97 155.864 151.064 156.097 151.064 156.368C151.064 156.639 150.97 156.867 150.784 157.054C150.597 157.241 150.373 157.334 150.112 157.334ZM156.687 166.07C155.819 166.07 155.147 165.981 154.671 165.804C154.205 165.627 153.873 165.351 153.677 164.978C153.491 164.595 153.388 164.115 153.369 163.536L153.103 156.732H155.063L155.329 162.598C155.348 163.027 155.395 163.349 155.469 163.564C155.544 163.779 155.684 163.923 155.889 163.998C156.095 164.073 156.407 164.11 156.827 164.11C157.173 164.11 157.425 164.203 157.583 164.39C157.742 164.567 157.821 164.791 157.821 165.062C157.821 165.351 157.723 165.594 157.527 165.79C157.331 165.977 157.051 166.07 156.687 166.07ZM152.697 155.836L152.459 154.856C152.758 154.8 152.996 154.753 153.173 154.716C153.005 154.595 152.861 154.436 152.739 154.24C152.618 154.044 152.557 153.829 152.557 153.596C152.557 153.26 152.632 152.989 152.781 152.784C152.931 152.579 153.122 152.429 153.355 152.336C153.589 152.243 153.831 152.196 154.083 152.196C154.354 152.196 154.601 152.233 154.825 152.308L154.713 153.316C154.62 153.297 154.527 153.279 154.433 153.26C154.34 153.241 154.237 153.232 154.125 153.232C153.995 153.232 153.883 153.274 153.789 153.358C153.696 153.433 153.649 153.526 153.649 153.638C153.649 153.825 153.724 153.988 153.873 154.128C154.032 154.259 154.191 154.352 154.349 154.408C154.648 154.324 154.923 154.231 155.175 154.128L155.455 155.066C155.101 155.197 154.667 155.337 154.153 155.486C153.649 155.626 153.164 155.743 152.697 155.836ZM156.707 166.07L156.847 164.124C157.612 164.124 158.233 164.119 158.709 164.11C159.185 164.101 159.554 164.082 159.815 164.054C160.086 164.017 160.286 163.975 160.417 163.928C160.548 163.872 160.66 163.811 160.753 163.746C160.828 163.69 160.893 163.62 160.949 163.536C161.014 163.452 161.07 163.349 161.117 163.228C160.734 163.368 160.338 163.438 159.927 163.438C159.18 163.438 158.592 163.284 158.163 162.976C157.734 162.659 157.519 162.103 157.519 161.31C157.519 160.899 157.589 160.493 157.729 160.092C157.869 159.681 158.07 159.313 158.331 158.986C158.592 158.65 158.9 158.384 159.255 158.188C159.61 157.983 160.002 157.88 160.431 157.88C161.066 157.88 161.588 158.067 161.999 158.44C162.419 158.804 162.727 159.299 162.923 159.924C163.128 160.54 163.231 161.226 163.231 161.982C163.231 162.645 163.133 163.223 162.937 163.718C162.741 164.203 162.508 164.586 162.237 164.866C162.013 165.099 161.756 165.295 161.467 165.454C161.178 165.613 160.823 165.739 160.403 165.832C159.992 165.916 159.484 165.977 158.877 166.014C158.28 166.051 157.556 166.07 156.707 166.07ZM159.451 160.932C159.451 161.333 159.764 161.534 160.389 161.534C160.688 161.534 160.986 161.487 161.285 161.394C161.238 160.881 161.131 160.489 160.963 160.218C160.795 159.947 160.58 159.812 160.319 159.812C160.095 159.812 159.894 159.919 159.717 160.134C159.54 160.349 159.451 160.615 159.451 160.932ZM160.403 156.578C160.114 156.578 159.866 156.48 159.661 156.284C159.465 156.088 159.367 155.845 159.367 155.556C159.367 155.267 159.465 155.019 159.661 154.814C159.866 154.609 160.114 154.506 160.403 154.506C160.683 154.506 160.921 154.609 161.117 154.814C161.322 155.019 161.425 155.267 161.425 155.556C161.425 155.845 161.322 156.088 161.117 156.284C160.921 156.48 160.683 156.578 160.403 156.578ZM168.213 166.07C167.345 166.07 166.673 165.981 166.197 165.804C165.731 165.627 165.399 165.351 165.203 164.978C165.017 164.595 164.914 164.115 164.895 163.536L164.601 155.752H166.561L166.855 162.598C166.874 163.027 166.921 163.349 166.995 163.564C167.07 163.779 167.21 163.923 167.415 163.998C167.621 164.073 167.933 164.11 168.353 164.11C168.699 164.11 168.951 164.203 169.109 164.39C169.268 164.567 169.347 164.791 169.347 165.062C169.347 165.351 169.249 165.594 169.053 165.79C168.857 165.977 168.577 166.07 168.213 166.07ZM168.232 166.07L168.372 164.11H170.332C170.818 164.11 171.14 164.068 171.298 163.984C171.457 163.9 171.536 163.769 171.536 163.592C171.536 163.387 171.434 163.149 171.228 162.878C171.032 162.598 170.785 162.309 170.486 162.01C170.188 161.711 169.889 161.422 169.59 161.142C169.292 160.862 169.04 160.619 168.834 160.414C168.638 160.199 168.54 160.045 168.54 159.952C168.54 159.569 168.568 159.294 168.624 159.126C168.69 158.958 168.774 158.823 168.876 158.72C169.091 158.505 169.436 158.258 169.912 157.978C170.398 157.698 170.981 157.395 171.662 157.068C172.344 156.732 173.09 156.377 173.902 156.004L174.7 157.712C173.776 158.123 172.997 158.482 172.362 158.79C171.728 159.098 171.191 159.378 170.752 159.63C171.368 160.19 171.9 160.727 172.348 161.24C172.796 161.753 173.221 162.337 173.622 162.99C173.818 163.317 174.028 163.559 174.252 163.718C174.476 163.877 174.691 163.984 174.896 164.04C175.111 164.087 175.302 164.11 175.47 164.11C175.816 164.11 176.068 164.203 176.226 164.39C176.385 164.567 176.464 164.791 176.464 165.062C176.464 165.351 176.366 165.594 176.17 165.79C175.974 165.977 175.694 166.07 175.33 166.07C174.966 166.07 174.565 165.995 174.126 165.846C173.697 165.697 173.333 165.435 173.034 165.062C172.736 165.426 172.353 165.687 171.886 165.846C171.429 165.995 170.864 166.07 170.192 166.07H168.232ZM175.342 166.07L175.482 164.11C175.687 164.11 175.869 164.059 176.028 163.956C176.186 163.844 176.35 163.662 176.518 163.41C176.686 163.158 176.882 162.808 177.106 162.36C177.526 161.52 177.969 160.946 178.436 160.638C178.912 160.321 179.397 160.162 179.892 160.162C180.442 160.162 180.937 160.316 181.376 160.624C181.814 160.932 182.16 161.333 182.412 161.828C182.664 162.313 182.79 162.831 182.79 163.382C182.79 163.877 182.682 164.325 182.468 164.726C182.262 165.118 181.973 165.431 181.6 165.664C181.236 165.888 180.816 166 180.34 166C179.985 166 179.579 165.949 179.122 165.846C178.664 165.743 178.184 165.529 177.68 165.202C177.39 165.529 177.068 165.757 176.714 165.888C176.359 166.009 175.902 166.07 175.342 166.07ZM179.836 162.122C179.565 162.122 179.35 162.257 179.192 162.528C179.033 162.799 178.846 163.158 178.632 163.606C178.921 163.755 179.187 163.867 179.43 163.942C179.682 164.007 179.896 164.04 180.074 164.04C180.354 164.04 180.559 163.998 180.69 163.914C180.82 163.83 180.886 163.681 180.886 163.466C180.886 163.27 180.839 163.069 180.746 162.864C180.652 162.659 180.526 162.486 180.368 162.346C180.209 162.197 180.032 162.122 179.836 162.122ZM115.842 186.476L114.344 185.86L118.782 176.242L120.308 176.9L115.842 186.476ZM115.618 178.972C115.338 178.692 115.1 178.454 114.904 178.258C114.708 178.062 114.465 177.843 114.176 177.6L115.408 176.284C115.688 176.499 115.954 176.737 116.206 176.998C116.458 177.25 116.682 177.493 116.878 177.726L115.618 178.972ZM119.398 186.266C119.118 185.977 118.88 185.734 118.684 185.538C118.488 185.342 118.245 185.123 117.956 184.88L119.188 183.564C119.468 183.779 119.734 184.017 119.986 184.278C120.238 184.53 120.462 184.773 120.658 185.006L119.398 186.266ZM128.582 181.002C128.582 182.075 128.465 182.995 128.232 183.76C128.008 184.525 127.639 185.113 127.126 185.524C126.612 185.935 125.931 186.14 125.082 186.14C123.878 186.14 122.996 185.687 122.436 184.782C121.876 183.877 121.596 182.617 121.596 181.002C121.596 179.929 121.708 179.009 121.932 178.244C122.156 177.469 122.524 176.877 123.038 176.466C123.551 176.055 124.232 175.85 125.082 175.85C126.276 175.85 127.158 176.303 127.728 177.208C128.297 178.113 128.582 179.378 128.582 181.002ZM123.696 181.002C123.696 182.141 123.794 182.999 123.99 183.578C124.186 184.147 124.55 184.432 125.082 184.432C125.604 184.432 125.968 184.147 126.174 183.578C126.379 183.009 126.482 182.15 126.482 181.002C126.482 179.863 126.379 179.005 126.174 178.426C125.968 177.847 125.604 177.558 125.082 177.558C124.55 177.558 124.186 177.847 123.99 178.426C123.794 179.005 123.696 179.863 123.696 181.002ZM133.304 179.616C133.91 179.616 134.452 179.733 134.928 179.966C135.404 180.199 135.777 180.54 136.048 180.988C136.328 181.436 136.468 181.991 136.468 182.654C136.468 183.737 136.132 184.591 135.46 185.216C134.788 185.832 133.794 186.14 132.478 186.14C131.955 186.14 131.46 186.093 130.994 186C130.536 185.907 130.135 185.771 129.79 185.594V183.774C130.135 183.951 130.55 184.105 131.036 184.236C131.521 184.357 131.978 184.418 132.408 184.418C133.033 184.418 133.509 184.292 133.836 184.04C134.172 183.779 134.34 183.377 134.34 182.836C134.34 181.828 133.672 181.324 132.338 181.324C132.076 181.324 131.806 181.352 131.526 181.408C131.246 181.455 131.012 181.501 130.826 181.548L129.986 181.1L130.364 176.004H135.782V177.796H132.212L132.03 179.756C132.188 179.728 132.356 179.7 132.534 179.672C132.72 179.635 132.977 179.616 133.304 179.616ZM141.116 185.608C141.116 185.291 141.158 184.885 141.242 184.39C141.335 183.895 141.536 183.307 141.844 182.626L143.566 183.228C143.407 183.667 143.286 184.045 143.202 184.362C143.118 184.67 143.076 184.973 143.076 185.272C143.076 185.888 143.337 186.373 143.86 186.728C144.392 187.092 145.153 187.274 146.142 187.274C147.169 187.274 147.971 187.176 148.55 186.98C149.138 186.793 149.432 186.513 149.432 186.14C149.432 185.981 149.301 185.823 149.04 185.664C148.788 185.505 148.349 185.314 147.724 185.09L148.186 183.116C148.979 183.452 149.703 183.704 150.356 183.872C151.009 184.031 151.588 184.11 152.092 184.11C152.447 184.11 152.699 184.203 152.848 184.39C152.997 184.567 153.072 184.791 153.072 185.062C153.072 185.351 152.974 185.594 152.778 185.79C152.582 185.977 152.307 186.07 151.952 186.07H151.308C151.327 186.163 151.336 186.243 151.336 186.308C151.336 186.383 151.336 186.453 151.336 186.518C151.336 186.826 151.229 187.139 151.014 187.456C150.809 187.773 150.487 188.067 150.048 188.338C149.609 188.609 149.049 188.823 148.368 188.982C147.696 189.15 146.893 189.234 145.96 189.234C144.439 189.234 143.249 188.94 142.39 188.352C141.541 187.773 141.116 186.859 141.116 185.608ZM151.949 186.07L152.089 184.11C152.425 184.11 152.715 184.077 152.957 184.012C153.2 183.947 153.405 183.816 153.573 183.62C153.741 183.415 153.881 183.116 153.993 182.724C154.115 182.332 154.222 181.809 154.315 181.156L156.149 181.464C156.112 181.679 156.07 181.935 156.023 182.234C155.977 182.533 155.953 182.808 155.953 183.06C155.953 183.396 156.093 183.657 156.373 183.844C156.653 184.021 157.134 184.11 157.815 184.11C158.161 184.11 158.408 184.203 158.557 184.39C158.716 184.567 158.795 184.791 158.795 185.062C158.795 185.351 158.697 185.594 158.501 185.79C158.315 185.977 158.039 186.07 157.675 186.07C157.022 186.07 156.462 185.986 155.995 185.818C155.538 185.65 155.202 185.351 154.987 184.922C154.735 185.258 154.437 185.51 154.091 185.678C153.755 185.837 153.401 185.944 153.027 186C152.663 186.047 152.304 186.07 151.949 186.07ZM154.021 179.882C153.751 179.882 153.517 179.789 153.321 179.602C153.135 179.406 153.041 179.177 153.041 178.916C153.041 178.645 153.135 178.412 153.321 178.216C153.517 178.02 153.751 177.922 154.021 177.922C154.283 177.922 154.507 178.02 154.693 178.216C154.88 178.412 154.973 178.645 154.973 178.916C154.973 179.177 154.88 179.406 154.693 179.602C154.507 179.789 154.283 179.882 154.021 179.882ZM156.443 179.896C156.173 179.896 155.939 179.803 155.743 179.616C155.557 179.429 155.463 179.201 155.463 178.93C155.463 178.659 155.557 178.426 155.743 178.23C155.939 178.034 156.173 177.936 156.443 177.936C156.705 177.936 156.929 178.034 157.115 178.23C157.302 178.426 157.395 178.659 157.395 178.93C157.395 179.201 157.302 179.429 157.115 179.616C156.929 179.803 156.705 179.896 156.443 179.896ZM157.678 186.07L157.818 184.11C158.826 184.11 159.806 183.998 160.758 183.774C161.71 183.55 162.554 183.191 163.292 182.696C162.862 182.444 162.386 182.248 161.864 182.108C161.35 181.968 160.786 181.898 160.17 181.898C159.936 181.898 159.694 181.912 159.442 181.94C159.199 181.959 158.952 181.996 158.7 182.052L158.42 180.134C158.69 180.069 158.975 180.017 159.274 179.98C159.572 179.943 159.843 179.924 160.086 179.924C160.72 179.924 161.29 180.008 161.794 180.176C162.298 180.344 162.755 180.54 163.166 180.764C163.586 180.988 163.973 181.184 164.328 181.352C164.692 181.52 165.046 181.604 165.392 181.604H165.91L166.134 183.466C165.723 183.494 165.345 183.573 165 183.704C164.654 183.835 164.309 184.003 163.964 184.208C163.628 184.404 163.264 184.609 162.872 184.824C162.489 185.039 162.055 185.239 161.57 185.426C161.084 185.613 160.524 185.767 159.89 185.888C159.255 186.009 158.518 186.07 157.678 186.07Z" fill="white"/>
</svg>
