<svg width="280" height="192" viewBox="0 0 280 192" fill="none" xmlns="http://www.w3.org/2000/svg">
<path d="M102.638 13.008L95.8335 33H91.2135L84.4375 13.008H88.7215L92.4735 24.908C92.5295 25.1133 92.6322 25.496 92.7815 26.056C92.9308 26.5973 93.0802 27.176 93.2295 27.792C93.3788 28.3893 93.4815 28.8933 93.5375 29.304C93.5935 28.8933 93.6868 28.3893 93.8175 27.792C93.9668 27.176 94.1068 26.5973 94.2375 26.056C94.3868 25.496 94.4988 25.1133 94.5735 24.908L98.3535 13.008H102.638ZM112.644 33H103.544V30.592L105.98 29.472V16.536L103.544 15.416V13.008H112.644V15.416L110.208 16.536V29.472L112.644 30.592V33ZM122.435 13.008C125.011 13.008 126.887 13.568 128.063 14.688C129.258 15.7893 129.855 17.3107 129.855 19.252C129.855 20.428 129.613 21.52 129.127 22.528C128.642 23.536 127.83 24.348 126.691 24.964C125.571 25.58 124.041 25.888 122.099 25.888H120.279V33H116.051V13.008H122.435ZM122.211 16.48H120.279V22.416H121.679C122.874 22.416 123.817 22.1827 124.507 21.716C125.217 21.2307 125.571 20.456 125.571 19.392C125.571 17.4507 124.451 16.48 122.211 16.48ZM147.515 44.032C145.872 44.032 144.369 43.7987 143.007 43.332C141.663 42.8653 140.589 42.128 139.787 41.12C139.003 40.1307 138.611 38.852 138.611 37.284C138.611 35.996 138.891 34.8667 139.451 33.896C140.029 32.944 140.748 32.1133 141.607 31.404C142.484 30.676 143.38 30.0133 144.295 29.416C143.865 28.8747 143.361 28.3147 142.783 27.736C142.223 27.1573 141.756 26.7187 141.383 26.42C141.327 26.364 141.233 26.1773 141.103 25.86C140.972 25.524 140.851 25.1787 140.739 24.824C140.645 24.4507 140.599 24.18 140.599 24.012C140.599 23.6387 140.776 23.2187 141.131 22.752C141.485 22.2667 141.98 21.8093 142.615 21.38C143.268 20.932 144.024 20.568 144.883 20.288C145.741 19.9893 146.675 19.84 147.683 19.84C149.512 19.84 150.828 20.232 151.631 21.016C152.452 21.8 152.863 22.7893 152.863 23.984C152.863 24.9547 152.667 25.832 152.275 26.616C151.883 27.4 151.388 28.128 150.791 28.8C151.369 28.9307 151.976 29.0333 152.611 29.108C153.264 29.1827 153.936 29.22 154.627 29.22C155.336 29.22 155.84 29.4067 156.139 29.78C156.437 30.1347 156.587 30.5827 156.587 31.124C156.587 31.7027 156.391 32.188 155.999 32.58C155.607 32.9533 155.056 33.14 154.347 33.14C152.741 33.14 151.388 33.028 150.287 32.804C149.204 32.5613 148.205 32.1973 147.291 31.712C146.488 32.2907 145.723 32.8507 144.995 33.392C144.285 33.952 143.707 34.5213 143.259 35.1C142.811 35.6787 142.587 36.304 142.587 36.976C142.587 37.76 142.848 38.376 143.371 38.824C143.893 39.2907 144.537 39.6173 145.303 39.804C146.068 40.0093 146.824 40.112 147.571 40.112C148.429 40.112 149.344 40.0093 150.315 39.804C151.304 39.5987 152.349 39.2627 153.451 38.796L154.627 42.156C153.563 42.7347 152.396 43.192 151.127 43.528C149.876 43.864 148.672 44.032 147.515 44.032ZM144.239 23.956C144.836 24.46 145.424 25.0107 146.003 25.608C146.6 26.1867 147.095 26.7187 147.487 27.204C147.935 26.812 148.299 26.4107 148.579 26C148.859 25.5893 148.999 25.1413 148.999 24.656C148.999 24.2827 148.859 23.956 148.579 23.676C148.299 23.3773 147.804 23.228 147.095 23.228C146.628 23.228 146.133 23.3027 145.611 23.452C145.107 23.5827 144.649 23.7507 144.239 23.956ZM168.859 33.504C166.769 33.504 165.098 33.392 163.847 33.168C162.597 32.944 161.626 32.636 160.935 32.244C160.263 31.852 159.75 31.3947 159.395 30.872C158.705 31.8613 157.921 32.4867 157.043 32.748C156.166 33.0093 155.27 33.14 154.355 33.14L154.635 29.22C155.401 29.22 155.961 29.052 156.315 28.716C156.689 28.3613 156.987 27.7827 157.211 26.98C157.454 26.1773 157.753 25.0853 158.107 23.704L161.663 24.572C161.271 26.084 161.075 27.064 161.075 27.512C161.075 27.9413 161.187 28.296 161.411 28.576C161.654 28.856 162.149 29.08 162.895 29.248C163.623 28.128 164.435 27.064 165.331 26.056C166.227 25.0293 167.179 24.124 168.187 23.34C169.195 22.556 170.241 21.94 171.323 21.492C172.406 21.044 173.507 20.82 174.627 20.82C176.494 20.82 177.941 21.352 178.967 22.416C180.013 23.48 180.535 24.852 180.535 26.532C180.535 27.8947 180.143 29.0987 179.359 30.144C178.594 31.1893 177.353 32.0107 175.635 32.608C173.937 33.2053 171.678 33.504 168.859 33.504ZM174.235 24.74C173.414 24.74 172.583 24.9733 171.743 25.44C170.922 25.9067 170.119 26.5133 169.335 27.26C168.57 28.0067 167.879 28.7813 167.263 29.584C167.543 29.584 167.842 29.584 168.159 29.584C170.306 29.584 171.995 29.4813 173.227 29.276C174.459 29.0707 175.327 28.7627 175.831 28.352C176.354 27.9413 176.615 27.428 176.615 26.812C176.615 26.2893 176.429 25.8133 176.055 25.384C175.682 24.9547 175.075 24.74 174.235 24.74ZM173.815 18.216C173.237 18.216 172.742 18.02 172.331 17.628C171.939 17.236 171.743 16.7507 171.743 16.172C171.743 15.5933 171.939 15.0987 172.331 14.688C172.742 14.2773 173.237 14.072 173.815 14.072C174.375 14.072 174.851 14.2773 175.243 14.688C175.654 15.0987 175.859 15.5933 175.859 16.172C175.859 16.7507 175.654 17.236 175.243 17.628C174.851 18.02 174.375 18.216 173.815 18.216ZM183.213 39.44L182.401 35.52C184.193 35.296 185.687 34.9973 186.881 34.624C188.095 34.2693 188.991 33.6627 189.569 32.804C189.308 32.8973 189.019 32.972 188.701 33.028C188.403 33.084 188.076 33.112 187.721 33.112C186.825 33.112 186.013 32.972 185.285 32.692C184.576 32.3933 184.007 31.936 183.577 31.32C183.148 30.704 182.933 29.9013 182.933 28.912C182.933 27.9973 183.083 27.1107 183.381 26.252C183.68 25.3933 184.091 24.628 184.613 23.956C185.155 23.2653 185.771 22.724 186.461 22.332C187.171 21.9213 187.917 21.716 188.701 21.716C189.616 21.716 190.428 21.9493 191.137 22.416C191.847 22.8827 192.435 23.4987 192.901 24.264C193.368 25.0107 193.723 25.8227 193.965 26.7C194.208 27.5773 194.329 28.4173 194.329 29.22C194.329 31.3293 193.881 33.1213 192.985 34.596C192.089 36.0707 190.811 37.2093 189.149 38.012C187.488 38.8333 185.509 39.3093 183.213 39.44ZM186.797 28.128C186.797 28.912 187.385 29.304 188.561 29.304C189.177 29.304 189.784 29.22 190.381 29.052C190.344 28.548 190.251 28.0533 190.101 27.568C189.971 27.064 189.775 26.6533 189.513 26.336C189.252 26.0187 188.925 25.86 188.533 25.86C188.011 25.86 187.591 26.112 187.273 26.616C186.956 27.1013 186.797 27.6053 186.797 28.128Z" fill="white"/>
<path fill-rule="evenodd" clip-rule="evenodd" d="M113.357 73.6364L104.476 86.958H122.238L113.357 73.6364ZM135.559 129.587L122.238 91.3986H104.476L135.559 129.587ZM157.762 91.3986H175.524L144.441 129.587L157.762 91.3986ZM140 131.364L126.678 91.3986H153.322L140 131.364ZM175.524 86.958H157.762L166.643 73.6364L175.524 86.958ZM140 73.6364L131.119 86.958H148.881L140 73.6364ZM119.307 73.6364H135.559L126.678 86.958L119.307 73.6364ZM153.322 86.958L162.203 73.6364H144.441L153.322 86.958Z" fill="white"/>
<path d="M92.7069 166.07C92.0069 166.07 91.4095 165.977 90.9149 165.79C90.4202 165.603 90.0469 165.286 89.7949 164.838C89.2069 164.95 88.6422 164.987 88.1009 164.95C87.5595 164.903 87.0789 164.787 86.6589 164.6C86.2389 164.404 85.9075 164.129 85.6649 163.774C85.4222 163.41 85.3009 162.962 85.3009 162.43C85.3009 161.805 85.4689 161.259 85.8049 160.792C86.1502 160.316 86.6169 159.915 87.2049 159.588C87.8022 159.261 88.4742 159.009 89.2209 158.832L89.1789 157.768H91.1529L91.3909 162.724C91.4189 163.303 91.5449 163.681 91.7689 163.858C92.0022 164.026 92.3615 164.11 92.8469 164.11C93.2015 164.11 93.4535 164.203 93.6029 164.39C93.7522 164.567 93.8269 164.791 93.8269 165.062C93.8269 165.351 93.7289 165.594 93.5329 165.79C93.3462 165.977 93.0709 166.07 92.7069 166.07ZM87.2609 162.248C87.2609 162.463 87.3635 162.631 87.5689 162.752C87.7835 162.873 88.0542 162.953 88.3809 162.99C88.7075 163.018 89.0482 162.999 89.4029 162.934L89.3189 160.778C88.6842 160.881 88.1802 161.067 87.8069 161.338C87.4429 161.609 87.2609 161.912 87.2609 162.248ZM87.7649 156.312C87.4942 156.312 87.2609 156.219 87.0649 156.032C86.8782 155.836 86.7849 155.607 86.7849 155.346C86.7849 155.075 86.8782 154.842 87.0649 154.646C87.2609 154.45 87.4942 154.352 87.7649 154.352C88.0262 154.352 88.2502 154.45 88.4369 154.646C88.6235 154.842 88.7169 155.075 88.7169 155.346C88.7169 155.607 88.6235 155.836 88.4369 156.032C88.2502 156.219 88.0262 156.312 87.7649 156.312ZM90.1869 156.326C89.9162 156.326 89.6829 156.233 89.4869 156.046C89.3002 155.859 89.2069 155.631 89.2069 155.36C89.2069 155.089 89.3002 154.856 89.4869 154.66C89.6829 154.464 89.9162 154.366 90.1869 154.366C90.4482 154.366 90.6722 154.464 90.8589 154.66C91.0455 154.856 91.1389 155.089 91.1389 155.36C91.1389 155.631 91.0455 155.859 90.8589 156.046C90.6722 156.233 90.4482 156.326 90.1869 156.326ZM99.9541 166.252C98.9088 166.252 98.0735 166.196 97.4481 166.084C96.8228 165.972 96.3375 165.818 95.9921 165.622C95.6561 165.426 95.3995 165.197 95.2221 164.936C94.8768 165.431 94.4848 165.743 94.0461 165.874C93.6075 166.005 93.1595 166.07 92.7021 166.07L92.8421 164.11C93.2248 164.11 93.5048 164.026 93.6821 163.858C93.8688 163.681 94.0181 163.391 94.1301 162.99C94.2515 162.589 94.4008 162.043 94.5781 161.352L96.3561 161.786C96.1601 162.542 96.0621 163.032 96.0621 163.256C96.0621 163.471 96.1181 163.648 96.2301 163.788C96.3515 163.928 96.5988 164.04 96.9721 164.124C97.3361 163.564 97.7421 163.032 98.1901 162.528C98.6381 162.015 99.1141 161.562 99.6181 161.17C100.122 160.778 100.645 160.47 101.186 160.246C101.727 160.022 102.278 159.91 102.838 159.91C103.771 159.91 104.495 160.176 105.008 160.708C105.531 161.24 105.792 161.926 105.792 162.766C105.792 163.447 105.596 164.049 105.204 164.572C104.821 165.095 104.201 165.505 103.342 165.804C102.493 166.103 101.363 166.252 99.9541 166.252ZM102.642 161.87C102.231 161.87 101.816 161.987 101.396 162.22C100.985 162.453 100.584 162.757 100.192 163.13C99.8095 163.503 99.4641 163.891 99.1561 164.292C99.2961 164.292 99.4455 164.292 99.6041 164.292C100.677 164.292 101.522 164.241 102.138 164.138C102.754 164.035 103.188 163.881 103.44 163.676C103.701 163.471 103.832 163.214 103.832 162.906C103.832 162.645 103.739 162.407 103.552 162.192C103.365 161.977 103.062 161.87 102.642 161.87ZM102.432 158.608C102.143 158.608 101.895 158.51 101.69 158.314C101.494 158.118 101.396 157.875 101.396 157.586C101.396 157.297 101.494 157.049 101.69 156.844C101.895 156.639 102.143 156.536 102.432 156.536C102.712 156.536 102.95 156.639 103.146 156.844C103.351 157.049 103.454 157.297 103.454 157.586C103.454 157.875 103.351 158.118 103.146 158.314C102.95 158.51 102.712 158.608 102.432 158.608ZM110.771 166.07C109.903 166.07 109.231 165.981 108.755 165.804C108.288 165.627 107.957 165.351 107.761 164.978C107.574 164.595 107.472 164.115 107.453 163.536L107.159 155.752H109.119L109.413 162.598C109.432 163.027 109.478 163.349 109.553 163.564C109.628 163.779 109.768 163.923 109.973 163.998C110.178 164.073 110.491 164.11 110.911 164.11C111.256 164.11 111.508 164.203 111.667 164.39C111.826 164.567 111.905 164.791 111.905 165.062C111.905 165.351 111.807 165.594 111.611 165.79C111.415 165.977 111.135 166.07 110.771 166.07ZM110.79 166.07L110.93 164.11C111.49 164.11 111.919 164.082 112.218 164.026C112.517 163.97 112.722 163.867 112.834 163.718C112.955 163.559 113.016 163.335 113.016 163.046C113.016 162.785 112.979 162.472 112.904 162.108C112.839 161.744 112.75 161.371 112.638 160.988C112.526 160.596 112.414 160.232 112.302 159.896L114.234 159.364C114.346 159.681 114.458 160.05 114.57 160.47C114.691 160.89 114.789 161.324 114.864 161.772C114.939 162.22 114.976 162.645 114.976 163.046C114.976 163.681 114.873 164.199 114.668 164.6C114.463 164.992 114.173 165.295 113.8 165.51C113.436 165.725 112.997 165.874 112.484 165.958C111.971 166.033 111.406 166.07 110.79 166.07ZM114.248 169.318C113.977 169.318 113.744 169.225 113.548 169.038C113.361 168.851 113.268 168.623 113.268 168.352C113.268 168.081 113.361 167.848 113.548 167.652C113.744 167.456 113.977 167.358 114.248 167.358C114.509 167.358 114.733 167.456 114.92 167.652C115.107 167.848 115.2 168.081 115.2 168.352C115.2 168.623 115.107 168.851 114.92 169.038C114.733 169.225 114.509 169.318 114.248 169.318ZM111.826 169.318C111.555 169.318 111.322 169.225 111.126 169.038C110.939 168.851 110.846 168.623 110.846 168.352C110.846 168.081 110.939 167.848 111.126 167.652C111.322 167.456 111.555 167.358 111.826 167.358C112.087 167.358 112.311 167.456 112.498 167.652C112.685 167.848 112.778 168.081 112.778 168.352C112.778 168.623 112.685 168.851 112.498 169.038C112.311 169.225 112.087 169.318 111.826 169.318ZM116.045 169.234L115.331 167.498C115.994 167.265 116.582 166.989 117.095 166.672C117.609 166.364 118.01 166.009 118.299 165.608C118.598 165.197 118.747 164.74 118.747 164.236C118.747 163.844 118.659 163.415 118.481 162.948C118.304 162.481 118.089 162.005 117.837 161.52L119.671 160.638C119.83 160.927 119.975 161.24 120.105 161.576C120.236 161.903 120.343 162.197 120.427 162.458C120.511 162.719 120.567 162.897 120.595 162.99C120.726 163.438 120.903 163.737 121.127 163.886C121.361 164.035 121.734 164.11 122.247 164.11C122.593 164.11 122.845 164.203 123.003 164.39C123.162 164.567 123.241 164.791 123.241 165.062C123.241 165.351 123.143 165.594 122.947 165.79C122.751 165.977 122.471 166.07 122.107 166.07C121.398 166.07 120.857 165.879 120.483 165.496C120.325 166.075 120.021 166.607 119.573 167.092C119.135 167.587 118.607 168.016 117.991 168.38C117.375 168.744 116.727 169.029 116.045 169.234ZM122.124 166.07L122.264 164.11C122.693 164.11 123.001 164.068 123.188 163.984C123.375 163.891 123.487 163.723 123.524 163.48C123.561 163.228 123.571 162.864 123.552 162.388L123.3 155.752H125.274L125.554 162.528C125.573 163.069 125.549 163.559 125.484 163.998C125.428 164.427 125.283 164.796 125.05 165.104C124.826 165.412 124.476 165.65 124 165.818C123.533 165.986 122.908 166.07 122.124 166.07ZM127.4 166L127.106 155.752H129.066L129.36 166H127.4ZM144.945 166.07L145.085 164.11C145.514 164.11 145.822 164.068 146.009 163.984C146.196 163.891 146.308 163.723 146.345 163.48C146.382 163.228 146.392 162.864 146.373 162.388L146.149 155.752H148.137L148.375 162.374C148.394 162.85 148.45 163.214 148.543 163.466C148.636 163.709 148.79 163.877 149.005 163.97C149.229 164.063 149.528 164.11 149.901 164.11C150.256 164.11 150.508 164.203 150.657 164.39C150.806 164.567 150.881 164.791 150.881 165.062C150.881 165.351 150.783 165.594 150.587 165.79C150.391 165.977 150.116 166.07 149.761 166.07C149.276 166.07 148.832 166.005 148.431 165.874C148.03 165.743 147.726 165.477 147.521 165.076C147.26 165.468 146.924 165.734 146.513 165.874C146.102 166.005 145.58 166.07 144.945 166.07ZM134.109 165.608C134.109 165.291 134.151 164.885 134.235 164.39C134.328 163.895 134.529 163.307 134.837 162.626L136.559 163.228C136.4 163.667 136.279 164.045 136.195 164.362C136.111 164.67 136.069 164.973 136.069 165.272C136.069 165.888 136.33 166.373 136.853 166.728C137.385 167.092 138.146 167.274 139.135 167.274C140.162 167.274 140.964 167.176 141.543 166.98C142.131 166.793 142.425 166.513 142.425 166.14C142.425 165.981 142.294 165.823 142.033 165.664C141.781 165.505 141.342 165.314 140.717 165.09L141.179 163.116C141.972 163.452 142.696 163.704 143.349 163.872C144.002 164.031 144.581 164.11 145.085 164.11C145.44 164.11 145.692 164.203 145.841 164.39C145.99 164.567 146.065 164.791 146.065 165.062C146.065 165.351 145.967 165.594 145.771 165.79C145.575 165.977 145.3 166.07 144.945 166.07H144.301C144.32 166.163 144.329 166.243 144.329 166.308C144.329 166.383 144.329 166.453 144.329 166.518C144.329 166.826 144.222 167.139 144.007 167.456C143.802 167.773 143.48 168.067 143.041 168.338C142.602 168.609 142.042 168.823 141.361 168.982C140.689 169.15 139.886 169.234 138.953 169.234C137.432 169.234 136.242 168.94 135.383 168.352C134.534 167.773 134.109 166.859 134.109 165.608ZM149.755 166.07L149.895 164.11C150.334 164.11 150.67 164.105 150.903 164.096C151.146 164.087 151.328 164.077 151.449 164.068C151.57 164.049 151.673 164.035 151.757 164.026C151.654 163.933 151.528 163.797 151.379 163.62C151.239 163.443 151.108 163.214 150.987 162.934C150.875 162.654 150.819 162.318 150.819 161.926C150.819 161.357 150.964 160.857 151.253 160.428C151.552 159.999 151.953 159.663 152.457 159.42C152.961 159.177 153.526 159.056 154.151 159.056C154.711 159.056 155.248 159.131 155.761 159.28L155.453 161.142C155.266 161.095 155.066 161.058 154.851 161.03C154.646 161.002 154.468 160.988 154.319 160.988C153.852 160.988 153.479 161.095 153.199 161.31C152.928 161.525 152.793 161.809 152.793 162.164C152.793 162.435 152.868 162.673 153.017 162.878C153.176 163.074 153.353 163.233 153.549 163.354C153.745 163.475 153.904 163.555 154.025 163.592C154.333 163.499 154.594 163.424 154.809 163.368C155.024 163.303 155.248 163.228 155.481 163.144C155.714 163.051 156.022 162.92 156.405 162.752L157.035 164.6C156.251 164.983 155.486 165.281 154.739 165.496C153.992 165.711 153.218 165.86 152.415 165.944C151.612 166.028 150.726 166.07 149.755 166.07ZM161.549 165.608C161.549 165.291 161.591 164.885 161.675 164.39C161.768 163.895 161.969 163.307 162.277 162.626L163.999 163.228C163.84 163.667 163.719 164.045 163.635 164.362C163.551 164.67 163.509 164.973 163.509 165.272C163.509 165.963 163.737 166.467 164.195 166.784C164.661 167.111 165.277 167.274 166.043 167.274C166.621 167.274 167.097 167.195 167.471 167.036C167.844 166.887 168.133 166.686 168.339 166.434C168.544 166.191 168.689 165.925 168.773 165.636C168.857 165.337 168.899 165.048 168.899 164.768C168.899 164.395 168.833 163.942 168.703 163.41C168.572 162.878 168.339 162.281 168.003 161.618L169.809 160.848C169.995 161.175 170.168 161.557 170.327 161.996C170.485 162.425 170.611 162.873 170.705 163.34C170.807 163.807 170.859 164.25 170.859 164.67C170.859 165.043 170.812 165.44 170.719 165.86C170.625 166.271 170.467 166.677 170.243 167.078C170.028 167.479 169.734 167.839 169.361 168.156C168.987 168.483 168.525 168.744 167.975 168.94C167.424 169.136 166.766 169.234 166.001 169.234C165.179 169.234 164.433 169.113 163.761 168.87C163.089 168.627 162.552 168.235 162.151 167.694C161.749 167.162 161.549 166.467 161.549 165.608ZM166.113 160.288C165.823 160.288 165.576 160.19 165.371 159.994C165.175 159.798 165.077 159.555 165.077 159.266C165.077 158.977 165.175 158.729 165.371 158.524C165.576 158.319 165.823 158.216 166.113 158.216C166.393 158.216 166.631 158.319 166.827 158.524C167.032 158.729 167.135 158.977 167.135 159.266C167.135 159.555 167.032 159.798 166.827 159.994C166.631 160.19 166.393 160.288 166.113 160.288ZM176 166.07C175.132 166.07 174.46 165.981 173.984 165.804C173.517 165.627 173.186 165.351 172.99 164.978C172.803 164.595 172.7 164.115 172.682 163.536L172.388 155.752H174.348L174.642 162.598C174.66 163.027 174.707 163.349 174.782 163.564C174.856 163.779 174.996 163.923 175.202 163.998C175.407 164.073 175.72 164.11 176.14 164.11C176.485 164.11 176.737 164.203 176.896 164.39C177.054 164.567 177.134 164.791 177.134 165.062C177.134 165.351 177.036 165.594 176.84 165.79C176.644 165.977 176.364 166.07 176 166.07ZM181.717 166.112C181.297 166.112 180.863 166.061 180.415 165.958C179.976 165.855 179.556 165.701 179.155 165.496C178.688 165.692 178.189 165.837 177.657 165.93C177.125 166.023 176.579 166.07 176.019 166.07L176.159 164.11C176.411 164.11 176.649 164.11 176.873 164.11C177.097 164.101 177.302 164.087 177.489 164.068C177.33 163.816 177.204 163.541 177.111 163.242C177.017 162.943 176.971 162.621 176.971 162.276C176.971 161.8 177.083 161.366 177.307 160.974C177.54 160.573 177.881 160.283 178.329 160.106C178.151 159.985 177.965 159.859 177.769 159.728L178.847 158.202C179.836 158.902 180.662 159.513 181.325 160.036C181.997 160.559 182.538 161.016 182.949 161.408C183.359 161.8 183.672 162.145 183.887 162.444C184.111 162.733 184.26 163.004 184.335 163.256C184.409 163.499 184.447 163.737 184.447 163.97C184.447 164.642 184.209 165.169 183.733 165.552C183.257 165.925 182.585 166.112 181.717 166.112ZM178.735 162.206C178.735 162.458 178.786 162.691 178.889 162.906C179.001 163.121 179.145 163.312 179.323 163.48C179.537 163.293 179.705 163.083 179.827 162.85C179.948 162.617 180.009 162.388 180.009 162.164C180.009 161.949 179.957 161.749 179.855 161.562C179.761 161.375 179.612 161.282 179.407 161.282C179.183 161.282 179.015 161.38 178.903 161.576C178.791 161.763 178.735 161.973 178.735 162.206ZM182.515 163.774C182.515 163.625 182.463 163.461 182.361 163.284C182.267 163.107 182.029 162.85 181.647 162.514C181.628 162.85 181.558 163.163 181.437 163.452C181.315 163.732 181.161 163.989 180.975 164.222C181.217 164.269 181.465 164.292 181.717 164.292C182.006 164.292 182.211 164.245 182.333 164.152C182.454 164.059 182.515 163.933 182.515 163.774ZM184.651 169.234L183.937 167.498C184.599 167.265 185.187 166.989 185.701 166.672C186.214 166.364 186.615 166.009 186.905 165.608C187.203 165.197 187.353 164.74 187.353 164.236C187.353 163.844 187.264 163.415 187.087 162.948C186.909 162.481 186.695 162.005 186.443 161.52L188.277 160.638C188.435 160.927 188.58 161.24 188.711 161.576C188.841 161.903 188.949 162.197 189.033 162.458C189.117 162.719 189.173 162.897 189.201 162.99C189.331 163.438 189.509 163.737 189.733 163.886C189.966 164.035 190.339 164.11 190.853 164.11C191.198 164.11 191.45 164.203 191.609 164.39C191.767 164.567 191.847 164.791 191.847 165.062C191.847 165.351 191.749 165.594 191.553 165.79C191.357 165.977 191.077 166.07 190.713 166.07C190.003 166.07 189.462 165.879 189.089 165.496C188.93 166.075 188.627 166.607 188.179 167.092C187.74 167.587 187.213 168.016 186.597 168.38C185.981 168.744 185.332 169.029 184.651 169.234ZM190.729 166.07L190.869 164.11C191.299 164.11 191.607 164.068 191.793 163.984C191.98 163.891 192.092 163.723 192.129 163.48C192.167 163.228 192.176 162.864 192.157 162.388L191.905 155.752H193.879L194.159 162.528C194.178 163.069 194.155 163.559 194.089 163.998C194.033 164.427 193.889 164.796 193.655 165.104C193.431 165.412 193.081 165.65 192.605 165.818C192.139 165.986 191.513 166.07 190.729 166.07ZM196.006 166L195.712 155.752H197.672L197.966 166H196.006ZM100.262 186.476L98.7645 185.86L103.202 176.242L104.728 176.9L100.262 186.476ZM100.038 178.972C99.7585 178.692 99.5205 178.454 99.3245 178.258C99.1285 178.062 98.8858 177.843 98.5965 177.6L99.8285 176.284C100.108 176.499 100.374 176.737 100.626 176.998C100.878 177.25 101.102 177.493 101.298 177.726L100.038 178.972ZM103.818 186.266C103.538 185.977 103.3 185.734 103.104 185.538C102.908 185.342 102.666 185.123 102.376 184.88L103.608 183.564C103.888 183.779 104.154 184.017 104.406 184.278C104.658 184.53 104.882 184.773 105.078 185.006L103.818 186.266ZM114.931 186H112.817V180.218C112.817 179.985 112.822 179.672 112.831 179.28C112.841 178.879 112.855 178.529 112.873 178.23C112.827 178.286 112.724 178.389 112.565 178.538C112.416 178.678 112.276 178.804 112.145 178.916L110.997 179.84L109.975 178.566L113.195 176.004H114.931V186ZM124.651 181.002C124.651 182.075 124.534 182.995 124.301 183.76C124.077 184.525 123.708 185.113 123.195 185.524C122.682 185.935 122 186.14 121.151 186.14C119.947 186.14 119.065 185.687 118.505 184.782C117.945 183.877 117.665 182.617 117.665 181.002C117.665 179.929 117.777 179.009 118.001 178.244C118.225 177.469 118.594 176.877 119.107 176.466C119.62 176.055 120.302 175.85 121.151 175.85C122.346 175.85 123.228 176.303 123.797 177.208C124.366 178.113 124.651 179.378 124.651 181.002ZM119.765 181.002C119.765 182.141 119.863 182.999 120.059 183.578C120.255 184.147 120.619 184.432 121.151 184.432C121.674 184.432 122.038 184.147 122.243 183.578C122.448 183.009 122.551 182.15 122.551 181.002C122.551 179.863 122.448 179.005 122.243 178.426C122.038 177.847 121.674 177.558 121.151 177.558C120.619 177.558 120.255 177.847 120.059 178.426C119.863 179.005 119.765 179.863 119.765 181.002ZM132.663 181.002C132.663 182.075 132.546 182.995 132.313 183.76C132.089 184.525 131.72 185.113 131.207 185.524C130.694 185.935 130.012 186.14 129.163 186.14C127.959 186.14 127.077 185.687 126.517 184.782C125.957 183.877 125.677 182.617 125.677 181.002C125.677 179.929 125.789 179.009 126.013 178.244C126.237 177.469 126.606 176.877 127.119 176.466C127.632 176.055 128.314 175.85 129.163 175.85C130.358 175.85 131.24 176.303 131.809 177.208C132.378 178.113 132.663 179.378 132.663 181.002ZM127.777 181.002C127.777 182.141 127.875 182.999 128.071 183.578C128.267 184.147 128.631 184.432 129.163 184.432C129.686 184.432 130.05 184.147 130.255 183.578C130.46 183.009 130.563 182.15 130.563 181.002C130.563 179.863 130.46 179.005 130.255 178.426C130.05 177.847 129.686 177.558 129.163 177.558C128.631 177.558 128.267 177.847 128.071 178.426C127.875 179.005 127.777 179.863 127.777 181.002ZM137.185 185.608C137.185 185.291 137.227 184.885 137.311 184.39C137.405 183.895 137.605 183.307 137.913 182.626L139.635 183.228C139.477 183.667 139.355 184.045 139.271 184.362C139.187 184.67 139.145 184.973 139.145 185.272C139.145 185.907 139.36 186.397 139.789 186.742C140.219 187.097 140.849 187.274 141.679 187.274C142.426 187.274 143.009 187.167 143.429 186.952C143.849 186.737 144.143 186.448 144.311 186.084C144.479 185.729 144.563 185.328 144.563 184.88C144.563 184.497 144.493 184.035 144.353 183.494C144.223 182.953 144.05 182.355 143.835 181.702L145.795 181.198C145.926 181.739 146.029 182.159 146.103 182.458C146.187 182.757 146.253 182.981 146.299 183.13C146.439 183.55 146.659 183.821 146.957 183.942C147.256 184.054 147.681 184.11 148.231 184.11C148.577 184.11 148.824 184.203 148.973 184.39C149.132 184.567 149.211 184.791 149.211 185.062C149.211 185.351 149.113 185.594 148.917 185.79C148.721 185.977 148.446 186.07 148.091 186.07C147.783 186.07 147.48 186.033 147.181 185.958C146.883 185.874 146.626 185.739 146.411 185.552C146.29 186.719 145.805 187.624 144.955 188.268C144.115 188.912 143.005 189.234 141.623 189.234C140.793 189.234 140.041 189.108 139.369 188.856C138.697 188.613 138.165 188.226 137.773 187.694C137.381 187.162 137.185 186.467 137.185 185.608ZM141.749 180.288C141.46 180.288 141.213 180.19 141.007 179.994C140.811 179.798 140.713 179.555 140.713 179.266C140.713 178.977 140.811 178.729 141.007 178.524C141.213 178.319 141.46 178.216 141.749 178.216C142.029 178.216 142.267 178.319 142.463 178.524C142.669 178.729 142.771 178.977 142.771 179.266C142.771 179.555 142.669 179.798 142.463 179.994C142.267 180.19 142.029 180.288 141.749 180.288ZM148.087 186.07L148.227 184.11C148.432 184.11 148.614 184.059 148.773 183.956C148.932 183.844 149.095 183.662 149.263 183.41C149.431 183.158 149.627 182.808 149.851 182.36C150.271 181.52 150.714 180.946 151.181 180.638C151.657 180.321 152.142 180.162 152.637 180.162C153.188 180.162 153.682 180.316 154.121 180.624C154.56 180.932 154.905 181.333 155.157 181.828C155.409 182.313 155.535 182.831 155.535 183.382C155.535 183.877 155.428 184.325 155.213 184.726C155.008 185.118 154.718 185.431 154.345 185.664C153.981 185.888 153.561 186 153.085 186C152.73 186 152.324 185.949 151.867 185.846C151.41 185.743 150.929 185.529 150.425 185.202C150.136 185.529 149.814 185.757 149.459 185.888C149.104 186.009 148.647 186.07 148.087 186.07ZM152.581 182.122C152.31 182.122 152.096 182.257 151.937 182.528C151.778 182.799 151.592 183.158 151.377 183.606C151.666 183.755 151.932 183.867 152.175 183.942C152.427 184.007 152.642 184.04 152.819 184.04C153.099 184.04 153.304 183.998 153.435 183.914C153.566 183.83 153.631 183.681 153.631 183.466C153.631 183.27 153.584 183.069 153.491 182.864C153.398 182.659 153.272 182.486 153.113 182.346C152.954 182.197 152.777 182.122 152.581 182.122ZM160.096 189.234L159.382 187.498C160.045 187.265 160.633 186.989 161.146 186.672C161.659 186.364 162.061 186.009 162.35 185.608C162.649 185.197 162.798 184.74 162.798 184.236C162.798 183.844 162.709 183.415 162.532 182.948C162.355 182.481 162.14 182.005 161.888 181.52L163.722 180.638C163.881 180.927 164.025 181.24 164.156 181.576C164.287 181.903 164.394 182.197 164.478 182.458C164.562 182.719 164.618 182.897 164.646 182.99C164.777 183.438 164.954 183.737 165.178 183.886C165.411 184.035 165.785 184.11 166.298 184.11C166.643 184.11 166.895 184.203 167.054 184.39C167.213 184.567 167.292 184.791 167.292 185.062C167.292 185.351 167.194 185.594 166.998 185.79C166.802 185.977 166.522 186.07 166.158 186.07C165.449 186.07 164.907 185.879 164.534 185.496C164.375 186.075 164.072 186.607 163.624 187.092C163.185 187.587 162.658 188.016 162.042 188.38C161.426 188.744 160.777 189.029 160.096 189.234ZM166.175 186.07L166.315 184.11C166.651 184.11 166.94 184.077 167.183 184.012C167.425 183.947 167.631 183.816 167.799 183.62C167.967 183.415 168.107 183.116 168.219 182.724C168.34 182.332 168.447 181.809 168.541 181.156L170.375 181.464C170.337 181.679 170.295 181.935 170.249 182.234C170.202 182.533 170.179 182.808 170.179 183.06C170.179 183.396 170.319 183.657 170.599 183.844C170.879 184.021 171.359 184.11 172.041 184.11C172.386 184.11 172.633 184.203 172.783 184.39C172.941 184.567 173.021 184.791 173.021 185.062C173.021 185.351 172.923 185.594 172.727 185.79C172.54 185.977 172.265 186.07 171.901 186.07C171.247 186.07 170.687 185.986 170.221 185.818C169.763 185.65 169.427 185.351 169.213 184.922C168.961 185.258 168.662 185.51 168.317 185.678C167.981 185.837 167.626 185.944 167.253 186C166.889 186.047 166.529 186.07 166.175 186.07ZM169.549 178.02C169.306 178.02 169.101 177.931 168.933 177.754C168.765 177.577 168.681 177.367 168.681 177.124C168.681 176.881 168.765 176.676 168.933 176.508C169.101 176.34 169.306 176.256 169.549 176.256C169.791 176.256 169.997 176.34 170.165 176.508C170.333 176.676 170.417 176.881 170.417 177.124C170.417 177.367 170.333 177.577 170.165 177.754C169.997 177.931 169.791 178.02 169.549 178.02ZM168.429 179.868C168.186 179.868 167.981 179.779 167.813 179.602C167.645 179.425 167.561 179.215 167.561 178.972C167.561 178.729 167.645 178.524 167.813 178.356C167.981 178.188 168.186 178.104 168.429 178.104C168.671 178.104 168.877 178.188 169.045 178.356C169.213 178.524 169.297 178.729 169.297 178.972C169.297 179.215 169.213 179.425 169.045 179.602C168.877 179.779 168.671 179.868 168.429 179.868ZM170.599 179.868C170.365 179.868 170.16 179.779 169.983 179.602C169.815 179.425 169.731 179.215 169.731 178.972C169.731 178.729 169.815 178.524 169.983 178.356C170.16 178.188 170.365 178.104 170.599 178.104C170.841 178.104 171.047 178.188 171.215 178.356C171.383 178.524 171.467 178.729 171.467 178.972C171.467 179.215 171.383 179.425 171.215 179.602C171.047 179.779 170.841 179.868 170.599 179.868ZM171.903 186.07L172.043 184.11H174.045C174.829 184.11 175.221 183.891 175.221 183.452C175.221 183.34 175.161 183.163 175.039 182.92C174.927 182.668 174.68 182.365 174.297 182.01C174.092 181.823 173.868 181.627 173.625 181.422C173.392 181.207 173.168 181.007 172.953 180.82C172.739 180.624 172.561 180.451 172.421 180.302C172.281 180.153 172.211 180.045 172.211 179.98C172.211 179.775 172.23 179.541 172.267 179.28C172.314 179.019 172.393 178.841 172.505 178.748C172.72 178.552 173.065 178.309 173.541 178.02C174.027 177.731 174.61 177.413 175.291 177.068C175.982 176.723 176.743 176.368 177.573 176.004L178.371 177.712C177.587 178.048 176.869 178.375 176.215 178.692C175.562 179.009 174.988 179.313 174.493 179.602C175.137 180.134 175.651 180.615 176.033 181.044C176.425 181.464 176.715 181.847 176.901 182.192C177.097 182.528 177.223 182.831 177.279 183.102C177.345 183.373 177.377 183.611 177.377 183.816C177.377 184.04 177.321 184.283 177.209 184.544C177.107 184.796 176.915 185.039 176.635 185.272C176.365 185.505 175.982 185.697 175.487 185.846C174.993 185.995 174.358 186.07 173.583 186.07H171.903ZM179.353 186L179.087 176.732H181.047L181.313 186H179.353ZM178.583 175.836L178.345 174.856C178.643 174.8 178.881 174.753 179.059 174.716C178.891 174.595 178.746 174.436 178.625 174.24C178.503 174.044 178.443 173.829 178.443 173.596C178.443 173.26 178.517 172.989 178.667 172.784C178.816 172.579 179.007 172.429 179.241 172.336C179.474 172.243 179.717 172.196 179.969 172.196C180.239 172.196 180.487 172.233 180.711 172.308L180.599 173.316C180.505 173.297 180.412 173.279 180.319 173.26C180.225 173.241 180.123 173.232 180.011 173.232C179.88 173.232 179.768 173.274 179.675 173.358C179.581 173.433 179.535 173.526 179.535 173.638C179.535 173.825 179.609 173.988 179.759 174.128C179.917 174.259 180.076 174.352 180.235 174.408C180.533 174.324 180.809 174.231 181.061 174.128L181.341 175.066C180.986 175.197 180.552 175.337 180.039 175.486C179.535 175.626 179.049 175.743 178.583 175.836Z" fill="white"/>
</svg>
