<svg width="454" height="30" viewBox="0 0 454 30" fill="none" xmlns="http://www.w3.org/2000/svg">
<path d="M21.1777 29L19.0977 22.2H8.69766L6.61766 29H0.0976562L10.1777 0.32H17.5777L27.6977 29H21.1777ZM17.6577 17.12L15.5777 10.48C15.4443 10.0267 15.271 9.45333 15.0577 8.76C14.8443 8.06667 14.631 7.36 14.4177 6.64C14.2043 5.92 14.031 5.29333 13.8977 4.76C13.7643 5.29333 13.5777 5.96 13.3377 6.76C13.1243 7.53333 12.911 8.28 12.6977 9C12.511 9.69333 12.3643 10.1867 12.2577 10.48L10.2177 17.12H17.6577ZM42.6536 5.08C40.3336 5.08 38.5603 5.94666 37.3336 7.68C36.1069 9.41333 35.4936 11.7867 35.4936 14.8C35.4936 17.84 36.0536 20.2 37.1736 21.88C38.3203 23.5333 40.1469 24.36 42.6536 24.36C43.8003 24.36 44.9603 24.2267 46.1336 23.96C47.3069 23.6933 48.5736 23.32 49.9336 22.84V27.92C48.6803 28.4267 47.4403 28.8 46.2136 29.04C44.9869 29.28 43.6136 29.4 42.0936 29.4C39.1336 29.4 36.7069 28.8 34.8136 27.6C32.9203 26.3733 31.5203 24.6667 30.6136 22.48C29.7069 20.2667 29.2536 17.6933 29.2536 14.76C29.2536 11.88 29.7736 9.33333 30.8136 7.12C31.8536 4.90666 33.3603 3.17333 35.3336 1.92C37.3336 0.666665 39.7736 0.0399985 42.6536 0.0399985C44.0669 0.0399985 45.4803 0.226665 46.8936 0.599998C48.3336 0.946665 49.7069 1.42667 51.0136 2.04L49.0536 6.96C47.9869 6.45333 46.9069 6.01333 45.8136 5.64C44.7469 5.26666 43.6936 5.08 42.6536 5.08ZM67.0023 29H60.9623V5.48H53.2023V0.439998H74.7623V5.48H67.0023V29ZM89.8464 29H76.8464V25.56L80.3264 23.96V5.48L76.8464 3.88V0.439998H89.8464V3.88L86.3664 5.48V23.96L89.8464 25.56V29ZM117.113 0.439998L107.393 29H100.793L91.1133 0.439998H97.2333L102.593 17.44C102.673 17.7333 102.82 18.28 103.033 19.08C103.247 19.8533 103.46 20.68 103.673 21.56C103.887 22.4133 104.033 23.1333 104.113 23.72C104.193 23.1333 104.327 22.4133 104.513 21.56C104.727 20.68 104.927 19.8533 105.113 19.08C105.327 18.28 105.487 17.7333 105.593 17.44L110.993 0.439998H117.113ZM136.607 29L134.527 22.2H124.127L122.047 29H115.527L125.607 0.32H133.007L143.127 29H136.607ZM133.087 17.12L131.007 10.48C130.874 10.0267 130.701 9.45333 130.487 8.76C130.274 8.06667 130.061 7.36 129.847 6.64C129.634 5.92 129.461 5.29333 129.327 4.76C129.194 5.29333 129.007 5.96 128.767 6.76C128.554 7.53333 128.341 8.28 128.127 9C127.941 9.69333 127.794 10.1867 127.687 10.48L125.647 17.12H133.087ZM154.932 29H148.892V5.48H141.132V0.439998H162.692V5.48H154.932V29ZM183.536 29H167.096V0.439998H183.536V5.4H173.136V11.68H182.816V16.64H173.136V24H183.536V29Z" fill="white"/>
<path d="M199.87 0.439998H208.75C212.536 0.439998 215.403 0.973332 217.35 2.04C219.323 3.10667 220.31 4.98667 220.31 7.68C220.31 9.30667 219.923 10.68 219.15 11.8C218.403 12.92 217.323 13.6 215.91 13.84V14.04C216.843 14.2533 217.696 14.6 218.47 15.08C219.27 15.5333 219.896 16.2133 220.35 17.12C220.803 18.0267 221.03 19.2267 221.03 20.72C221.03 23.3067 220.083 25.3333 218.19 26.8C216.323 28.2667 213.776 29 210.55 29H199.87V0.439998ZM205.91 11.76H209.43C211.19 11.76 212.403 11.4933 213.07 10.96C213.763 10.4 214.11 9.57333 214.11 8.48C214.11 7.38667 213.71 6.6 212.91 6.12C212.11 5.64 210.843 5.4 209.11 5.4H205.91V11.76ZM205.91 16.56V24H209.87C211.683 24 212.95 23.6533 213.67 22.96C214.39 22.24 214.75 21.2933 214.75 20.12C214.75 19.0533 214.376 18.2 213.63 17.56C212.91 16.8933 211.59 16.56 209.67 16.56H205.91ZM252.665 14.68C252.665 17.64 252.171 20.2267 251.185 22.44C250.225 24.6267 248.731 26.3333 246.705 27.56C244.705 28.7867 242.158 29.4 239.065 29.4C235.971 29.4 233.411 28.7867 231.385 27.56C229.385 26.3333 227.891 24.6133 226.905 22.4C225.945 20.1867 225.465 17.6 225.465 14.64C225.465 11.68 225.945 9.10667 226.905 6.92C227.891 4.73333 229.385 3.04 231.385 1.84C233.411 0.613332 235.985 -9.53674e-07 239.105 -9.53674e-07C242.198 -9.53674e-07 244.745 0.613332 246.745 1.84C248.745 3.04 250.225 4.74667 251.185 6.96C252.171 9.14667 252.665 11.72 252.665 14.68ZM231.825 14.68C231.825 17.6667 232.398 20.0267 233.545 21.76C234.691 23.4667 236.531 24.32 239.065 24.32C241.651 24.32 243.505 23.4667 244.625 21.76C245.745 20.0267 246.305 17.6667 246.305 14.68C246.305 11.6933 245.745 9.34667 244.625 7.64C243.505 5.90667 241.665 5.04 239.105 5.04C236.545 5.04 234.691 5.90667 233.545 7.64C232.398 9.34667 231.825 11.6933 231.825 14.68ZM283.9 29H276.22L263.78 7.4H263.62C263.674 8.76 263.727 10.12 263.78 11.48C263.86 12.84 263.927 14.2 263.98 15.56V29H258.58V0.439998H266.22L278.62 21.84H278.74C278.687 20.5333 278.634 19.2267 278.58 17.92C278.527 16.6133 278.487 15.2933 278.46 13.96V0.439998H283.9V29ZM314.36 0.439998V18.92C314.36 20.8933 313.92 22.68 313.04 24.28C312.186 25.8533 310.88 27.1067 309.12 28.04C307.36 28.9467 305.16 29.4 302.52 29.4C298.733 29.4 295.853 28.44 293.88 26.52C291.906 24.5733 290.92 22.0133 290.92 18.84V0.439998H296.96V17.92C296.96 20.2933 297.44 21.96 298.4 22.92C299.36 23.8533 300.786 24.32 302.68 24.32C304.653 24.32 306.08 23.8 306.96 22.76C307.866 21.72 308.32 20.0933 308.32 17.88V0.439998H314.36ZM338.194 21.08C338.194 23.6133 337.274 25.64 335.434 27.16C333.621 28.6533 331.034 29.4 327.674 29.4C324.661 29.4 321.967 28.8267 319.594 27.68V22.04C320.954 22.6267 322.354 23.1733 323.794 23.68C325.261 24.16 326.714 24.4 328.154 24.4C329.647 24.4 330.701 24.12 331.314 23.56C331.954 22.9733 332.274 22.24 332.274 21.36C332.274 20.64 332.021 20.0267 331.514 19.52C331.034 19.0133 330.381 18.5467 329.554 18.12C328.727 17.6667 327.781 17.1867 326.714 16.68C326.047 16.36 325.327 15.9867 324.554 15.56C323.781 15.1067 323.034 14.56 322.314 13.92C321.621 13.2533 321.047 12.4533 320.594 11.52C320.141 10.5867 319.914 9.46667 319.914 8.16C319.914 5.6 320.781 3.61333 322.514 2.2C324.247 0.759999 326.607 0.0399985 329.594 0.0399985C331.087 0.0399985 332.501 0.213332 333.834 0.559999C335.167 0.906666 336.581 1.4 338.074 2.04L336.114 6.76C334.807 6.22667 333.634 5.81333 332.594 5.52C331.554 5.22667 330.487 5.08 329.394 5.08C328.247 5.08 327.367 5.34667 326.754 5.88C326.141 6.41333 325.834 7.10667 325.834 7.96C325.834 8.97333 326.287 9.77333 327.194 10.36C328.101 10.9467 329.447 11.6667 331.234 12.52C332.701 13.2133 333.941 13.9333 334.954 14.68C335.994 15.4267 336.794 16.3067 337.354 17.32C337.914 18.3333 338.194 19.5867 338.194 21.08ZM366.696 29H360.656V12.48C360.656 11.8133 360.669 10.92 360.696 9.8C360.722 8.65333 360.762 7.65333 360.816 6.8C360.682 6.96 360.389 7.25333 359.936 7.68C359.509 8.08 359.109 8.44 358.736 8.76L355.456 11.4L352.536 7.76L361.736 0.439998H366.696V29ZM394.466 14.72C394.466 17.7867 394.133 20.4133 393.466 22.6C392.826 24.7867 391.773 26.4667 390.306 27.64C388.84 28.8133 386.893 29.4 384.466 29.4C381.026 29.4 378.506 28.1067 376.906 25.52C375.306 22.9333 374.506 19.3333 374.506 14.72C374.506 11.6533 374.826 9.02667 375.466 6.84C376.106 4.62667 377.16 2.93333 378.626 1.76C380.093 0.586665 382.04 -9.53674e-07 384.466 -9.53674e-07C387.88 -9.53674e-07 390.4 1.29333 392.026 3.88C393.653 6.46667 394.466 10.08 394.466 14.72ZM380.506 14.72C380.506 17.9733 380.786 20.4267 381.346 22.08C381.906 23.7067 382.946 24.52 384.466 24.52C385.96 24.52 387 23.7067 387.586 22.08C388.173 20.4533 388.466 18 388.466 14.72C388.466 11.4667 388.173 9.01333 387.586 7.36C387 5.70667 385.96 4.88 384.466 4.88C382.946 4.88 381.906 5.70667 381.346 7.36C380.786 9.01333 380.506 11.4667 380.506 14.72ZM417.357 14.72C417.357 17.7867 417.024 20.4133 416.357 22.6C415.717 24.7867 414.664 26.4667 413.197 27.64C411.73 28.8133 409.784 29.4 407.357 29.4C403.917 29.4 401.397 28.1067 399.797 25.52C398.197 22.9333 397.397 19.3333 397.397 14.72C397.397 11.6533 397.717 9.02667 398.357 6.84C398.997 4.62667 400.05 2.93333 401.517 1.76C402.984 0.586665 404.93 -9.53674e-07 407.357 -9.53674e-07C410.77 -9.53674e-07 413.29 1.29333 414.917 3.88C416.544 6.46667 417.357 10.08 417.357 14.72ZM403.397 14.72C403.397 17.9733 403.677 20.4267 404.237 22.08C404.797 23.7067 405.837 24.52 407.357 24.52C408.85 24.52 409.89 23.7067 410.477 22.08C411.064 20.4533 411.357 18 411.357 14.72C411.357 11.4667 411.064 9.01333 410.477 7.36C409.89 5.70667 408.85 4.88 407.357 4.88C405.837 4.88 404.797 5.70667 404.237 7.36C403.677 9.01333 403.397 11.4667 403.397 14.72ZM426.808 0.0399985C429.048 0.0399985 430.741 0.826665 431.888 2.4C433.061 3.94666 433.648 6.13333 433.648 8.96C433.648 11.7867 433.101 14 432.008 15.6C430.914 17.1733 429.181 17.96 426.808 17.96C424.594 17.96 422.914 17.1733 421.768 15.6C420.648 14 420.088 11.7867 420.088 8.96C420.088 6.13333 420.621 3.94666 421.688 2.4C422.754 0.826665 424.461 0.0399985 426.808 0.0399985ZM447.088 0.439998L431.248 29H426.568L442.408 0.439998H447.088ZM426.848 4.12C425.621 4.12 425.008 5.74667 425.008 9C425.008 12.28 425.621 13.92 426.848 13.92C428.101 13.92 428.728 12.28 428.728 9C428.728 5.74667 428.101 4.12 426.848 4.12ZM446.808 11.44C449.048 11.44 450.741 12.2267 451.888 13.8C453.061 15.3467 453.648 17.5333 453.648 20.36C453.648 23.1867 453.101 25.4 452.008 27C450.914 28.5733 449.181 29.36 446.808 29.36C444.594 29.36 442.914 28.5733 441.768 27C440.648 25.4 440.088 23.1867 440.088 20.36C440.088 17.5333 440.621 15.3467 441.688 13.8C442.754 12.2267 444.461 11.44 446.808 11.44ZM446.848 15.52C445.621 15.52 445.008 17.1467 445.008 20.4C445.008 23.68 445.621 25.32 446.848 25.32C448.101 25.32 448.728 23.68 448.728 20.4C448.728 17.1467 448.101 15.52 446.848 15.52Z" fill="#FFC800"/>
</svg>
